<?xml version="1.0" encoding="UTF-8" standalone="no"?>
<!-- Creator: CorelDRAW -->

<svg
   xmlns:dc="http://purl.org/dc/elements/1.1/"
   xmlns:cc="http://creativecommons.org/ns#"
   xmlns:rdf="http://www.w3.org/1999/02/22-rdf-syntax-ns#"
   xmlns:svg="http://www.w3.org/2000/svg"
   xmlns="http://www.w3.org/2000/svg"
   xmlns:sodipodi="http://sodipodi.sourceforge.net/DTD/sodipodi-0.dtd"
   xmlns:inkscape="http://www.inkscape.org/namespaces/inkscape"
   xml:space="preserve"
   width="239.421mm"
   height="88.7466mm"
   style="shape-rendering:geometricPrecision; text-rendering:geometricPrecision; image-rendering:optimizeQuality; fill-rule:evenodd; clip-rule:evenodd"
   viewBox="0 0 239.421 88.7468"
   id="svg2"
   version="1.1"
   inkscape:version="0.47 r22583"
   sodipodi:docname="logo.radio.svg"><metadata
   id="metadata16"><rdf:RDF><cc:Work
       rdf:about=""><dc:format>image/svg+xml</dc:format><dc:type
         rdf:resource="http://purl.org/dc/dcmitype/StillImage" /><dc:title></dc:title></cc:Work></rdf:RDF></metadata><sodipodi:namedview
   pagecolor="#ffffff"
   bordercolor="#666666"
   borderopacity="1"
   objecttolerance="10"
   gridtolerance="10"
   guidetolerance="10"
   inkscape:pageopacity="0"
   inkscape:pageshadow="2"
   inkscape:window-width="1680"
   inkscape:window-height="976"
   id="namedview14"
   showgrid="false"
   inkscape:zoom="0.90186433"
   inkscape:cx="638.50939"
   inkscape:cy="99.642416"
   inkscape:window-x="0"
   inkscape:window-y="25"
   inkscape:window-maximized="1"
   inkscape:current-layer="svg2" />
 <defs
   id="defs4"><style
     type="text/css"
     id="style6">
   
    .fil0 {fill:#005197;fill-rule:nonzero}
   
  </style></defs>
 
<flowRoot
   xml:space="preserve"
   id="flowRoot2824"
   style="font-size:40px;font-style:normal;font-weight:normal;fill:#000000;fill-opacity:1;stroke:none;font-family:Bitstream Vera Sans"
   transform="matrix(0.28222286,0,0,0.28222286,-2.7702482e-4,0)"><flowRegion
     id="flowRegion2826"><rect
       id="rect2828"
       width="349.68634"
       height="103.49461"
       x="440.63614"
       y="193.71274" /></flowRegion><flowPara
     id="flowPara2830"
     style="font-weight:bold;writing-mode:tb">FREE MUSIC</flowPara><flowPara
     id="flowPara2832"
     style="font-weight:bold;writing-mode:tb">HUB RADIO</flowPara></flowRoot><g
   id="g4463"><path
     class="fil0"
     d="m 25.6607,79.8585 0,-27.9708 c 0,-0.401501 -0.200501,-0.602602 -0.602602,-0.602602 l -3.11321,0 c -0.435401,0 -0.653002,0.201101 -0.653002,0.602602 l 0,27.9708 c 0,1.2722 -0.434801,2.34341 -1.3054,3.21351 -0.870102,0.870602 -1.9247,1.306 -3.16371,1.306 l -0.853402,0 c -1.239,0 -2.29361,-0.435401 -3.16361,-1.306 -0.870702,-0.870102 -1.306,-1.9413 -1.306,-3.21351 l 0,-27.9708 c 0,-0.401501 -0.217701,-0.602602 -0.652502,-0.602602 l -3.11371,0 c -0.401601,0 -0.602602,0.201101 -0.602602,0.602602 l 0,27.9708 c 0,1.2384 0.234201,2.39321 0.703402,3.46491 0.468501,1.0712 1.1043,2.00831 1.908,2.81191 0.803602,0.803702 1.7407,1.4395 2.81191,1.908 1.0717,0.469201 2.20991,0.703502 3.41511,0.703502 l 0.853402,0 c 1.2052,0 2.34341,-0.234301 3.41451,-0.703502 1.0718,-0.468501 2.00891,-1.1043 2.81251,-1.908 0.803102,-0.803602 1.4395,-1.7407 1.908,-2.81191 0.468601,-1.0717 0.702902,-2.22651 0.702902,-3.46491 z m -11.1455,1.4416 c 0.253101,0.0848 0.516201,0.1459 0.789402,0.1833 l 0.0281,0.0038 0.0283,0.0036 0.028,0.0035 2e-4,0 0.0283,0.0031 2e-4,0 0.0281,0.0032 2e-4,0 0.0283,0.003 2e-4,0 0.0282,0.0029 2e-4,0 0.0286,0.0025 2e-4,0 0.0285,0.0024 2e-4,0 0.0286,0.0022 2e-4,0 0.0285,0.0023 2e-4,0 0.0289,0.0018 2e-4,0 0.0287,0.0018 2e-4,0 0.0289,0.0016 2e-4,0 0.0288,0.0016 2e-4,0 0.0292,0.0011 2e-4,0 0.029,0.0011 2e-4,0 0.0292,9e-4 2e-4,0 0.0291,9e-4 1e-4,0 0.0296,4e-4 0.0294,5e-4 0.0297,3e-4 0.0295,2e-4 0.853402,0 0.0298,-2e-4 0.0297,-3e-4 0.0296,-5e-4 0.0294,-4e-4 0.0295,-9e-4 0.0294,-9e-4 0.0293,-0.0011 0.0291,-0.0011 0.0292,-0.0016 0.0291,-0.0016 0.029,-0.0018 0.0288,-0.0018 0.0289,-0.0023 0.0288,-0.0022 0.0287,-0.0024 0.0285,-0.0025 0.0287,-0.0029 0.0285,-0.003 0.0285,-0.0032 0.0283,-0.0031 0.0281,-0.0035 2e-4,-10e-5 0.028,-0.0035 2e-4,-1e-4 0.028,-0.0037 10e-5,-1e-4 0.0058,-8e-4 0.0502,-0.0073 0.0068,-0.001 0.0157,-0.0025 0.0054,-8e-4 0.0102,-0.0016 0.0156,-0.0025 0.0021,-4e-4 0.0277,-0.0045 0.0014,-2e-4 0.0263,-0.0047 0.0049,-8e-4 0.0224,-0.0041 3e-4,0 0.0083,-0.0016 0.0153,-0.0027 0.004,-8e-4 0.0114,-0.0022 0.0153,-0.0028 6e-4,-10e-5 0.0276,-0.0056 0.0027,-6e-4 0.0246,-0.0051 0.006,-0.0012 0.0306,-0.0066 0.0153,-0.0034 0.0026,-5e-4 0.0125,-0.0028 0.0147,-0.0034 6e-4,-2e-4 0.0151,-0.0035 0.0113,-0.0026 0.004,-0.001 0.015,-0.0035 0.008,-0.002 0.0072,-0.0018 0.015,-0.0036 0.0241,-0.006 0.0059,-0.0014 0.0016,-5e-4 0.0135,-0.0036 0.0133,-0.0034 0.0017,-5e-4 0.015,-0.004 0.01,-0.0027 0.02,-0.0054 0.0066,-0.0018 0.0083,-0.0023 0.015,-0.0042 0.0033,-0.001 0.0264,-0.0076 0.0147,-0.0043 0.0117,-0.0035 0.0032,-10e-4 0.0147,-0.0043 0.0084,-0.0025 0.0064,-0.002 c 0.0392,-0.012 0.0785,-0.0248 0.1173,-0.0379 l 0.0072,-0.0025 0.0218,-0.0074 0.0041,-0.0015 0.0515,-0.0183 0.0022,-8e-4 0.0717,-0.0265 0.0033,-0.0012 0.0596,-0.0235 0.0057,-0.0023 0.0291,-0.0119 0.0071,-0.0029 0.0091,-0.0039 0.016,-0.0066 0,-6e-4 0,-35.4178 c 0,-1.2704 0.435901,-2.34391 1.306,-3.21401 0.870102,-0.870102 1.9424,-1.3054 3.21341,-1.3054 l 0.803702,0 c 1.271,0 2.34391,0.435301 3.21401,1.3054 0.870102,0.870102 1.3054,1.9424 1.3054,3.21401 l 0,4.67011 c 0,0.1666 0.0588,0.310201 0.1756,0.427001 0.1168,0.1169 0.261001,0.1756 0.427001,0.1756 l 3.16361,0 c 0.1661,0 0.310201,-0.0587 0.427101,-0.1756 0.1168,-0.1168 0.1755,-0.260901 0.1755,-0.427001 l 0,-4.67011 c 0,-1.2372 -0.234801,-2.39501 -0.702802,-3.46491 -0.467901,-1.0706 -1.1055,-2.00881 -1.9086,-2.81191 -0.803102,-0.803102 -1.7413,-1.4407 -2.81191,-1.9086 -1.0699,-0.468001 -2.22711,-0.702802 -3.46491,-0.702802 l -0.803702,0 c -1.2378,0 -2.39491,0.234801 -3.46491,0.702802 -0.367201,0.1605 -0.718502,0.341301 -1.0545,0.541601 l 0,-3.59491 0,-12.9658 c 0,-1.2704 0.435901,-2.34401 1.306,-3.21401 0.870102,-0.870102 1.9424,-1.3055 3.21341,-1.3055 l 0.803702,0 c 1.271,0 2.34391,0.435401 3.21401,1.3055 0.870102,0.870002 1.3054,1.9418 1.3054,3.21401 l 0,4.67011 c 0,0.1672 0.0588,0.310201 0.1756,0.427001 0.1168,0.1169 0.261001,0.1756 0.427001,0.1756 l 3.16361,0 c 0.1661,0 0.310201,-0.0587 0.427101,-0.1756 0.1168,-0.1168 0.1755,-0.261001 0.1755,-0.427001 l 0,-4.67011 c 0,-1.2372 -0.234801,-2.39441 -0.702802,-3.46491 -0.468501,-1.0706 -1.1055,-2.00891 -1.9086,-2.81191 -0.803102,-0.803102 -1.7413,-1.4401 -2.81191,-1.9086 -1.0705,-0.468001 -2.22651,-0.702802 -3.46491,-0.702802 l -0.803702,0 c -1.2383,0 -2.39431,0.234801 -3.46491,0.702802 -0.367201,0.1607 -0.718502,0.341501 -1.0545,0.541801 l 0,-5.0304098 c 0,-1.2052 -0.234901,-2.35291 -0.702802,-3.44001 -0.467401,-1.0872 -1.1056,-2.03381 -1.9086,-2.83681 -0.803102,-0.803102 -1.7497,-1.4401 -2.83681,-1.90859998 -1.0872,-0.468601 -2.23481,-0.702902 -3.4400104,-0.702902 l -0.702902,0 c -0.1678,0 -0.310101,0.0677002 -0.427001,0.201101 -0.1168,0.1329 -0.1755,0.285301 -0.1755,0.452001 l 0,3.11310998 c 0,0.1661 0.0587,0.310201 0.1755,0.427101 0.1169,0.1162 0.260401,0.1755 0.427001,0.1755 l 0.702902,0 c 1.2372004,0 2.3018104,0.444301 3.1885104,1.331 0.886702,0.886702 1.3309,1.9519 1.3309,3.18851 l 0,12.6739998 0,5.32191 c -0.335701,-0.200001 -0.687302,-0.380701 -1.0545,-0.541501 -1.0712,-0.468601 -2.22651,-0.702802 -3.4649104,-0.702802 l -0.803702,0 c -1.2384,0 -2.39371,0.234201 -3.46491,0.702802 -1.0711,0.469101 -2.00881,1.1049 -2.81191,1.9086 -0.803602,0.803102 -1.4394,1.7408 -1.90859999,2.81191 -0.468501,1.0711 -0.702801997,2.22651 -0.702801997,3.46491 l 0,4.67011 c 0,0.1672 0.058700097,0.309601 0.175499997,0.427001 0.1175,0.1169 0.259801,0.1756 0.427101,0.1756 l 3.16360999,0 c 0.1672,0 0.309601,-0.0587 0.427001,-0.1756 0.1169,-0.1174 0.1756,-0.259801 0.1756,-0.427001 l 0,-4.67011 c 0,-1.2722 0.435301,-2.34331 1.3054,-3.21401 0.870702,-0.870102 1.9418,-1.3054 3.21401,-1.3054 l 0.803702,0 c 1.2722004,0 2.3433104,0.435301 3.2134104,1.3054 0.870102,0.870102 1.306,1.9424 1.306,3.21401 l 0,11.2387 0,35.4178 0,6e-4 0.0254,0.0105 0.0028,0.0011 0.0093,0.0039 2e-4,1e-4 0.0281,0.0113 0.0093,0.0039 10e-4,3e-4 0.0027,0.0011 0.0337,0.0133 4e-4,2e-4 0.0096,0.0036 0.0046,0.0018 0.0047,0.0018 0.0096,0.0036 0.0039,0.0016 0.0092,0.0035 0.072,0.0264 5e-4,2e-4 0.0029,0.001 0.0067,0.0023 0.0384,0.0134 0.0068,0.0024 0.0028,9e-4 0.0096,0.0033 0.0096,0.0033 z"
     id="path10"
     style="fill:#005197;fill-rule:nonzero" /><path
     class="fil0"
     d="m 72.2519,28.7882 0,-3.16371 c 0,-0.402101 -0.217601,-0.602502 -0.653002,-0.602502 l -11.4492,0 c -0.1673,0 -0.309601,-0.0588 -0.427101,-0.1762 -0.1168,-0.1168 -0.1755,-0.259201 -0.1755,-0.426401 l 0,-10.7969 c 0,-0.1672 0.0587,-0.317901 0.1755,-0.451901 0.1175,-0.1341 0.259801,-0.201101 0.427101,-0.201101 l 12.9557,0 c 0.435301,0 0.653002,-0.200401 0.653002,-0.602602 l 0,-3.11321 c 0,-0.435301 -0.217701,-0.653002 -0.653002,-0.653002 l -17.3245,0 c -0.1673,0 -0.309601,0.067 -0.427101,0.201101 -0.1168,0.134 -0.1755,0.284701 -0.1755,0.451901 l 0,35.9048 c 0,0.1672 0.0587,0.309601 0.1755,0.427001 0.1175,0.1168 0.259801,0.1756 0.427101,0.1756 l 3.16361,0 c 0.1672,0 0.309601,-0.0588 0.427001,-0.1756 0.1169,-0.1174 0.1756,-0.259801 0.1756,-0.427001 l 0,-15.1651 c 0,-0.1678 0.0587,-0.310201 0.1755,-0.427001 0.1175,-0.1174 0.259801,-0.1756 0.427101,-0.1756 l 11.4492,0 c 0.1673,0 0.317901,-0.0587 0.452001,-0.1761 0.134,-0.1168 0.201001,-0.259201 0.201001,-0.426401 z m 21.5428,-6.12682 0,-5.17241 c 0,-1.2384 -0.234301,-2.39321 -0.703402,-3.46491 -0.468601,-1.0712 -1.1044,-2.00831 -1.908,-2.81191 -0.803702,-0.803702 -1.7408,-1.4395 -2.81191,-1.9081 -1.0712,-0.468501 -2.20991,-0.703402 -3.41511,-0.703402 l -9.08872,0 c -0.402101,0 -0.602602,0.217701 -0.602602,0.653002 l 0,35.9048 c 0,0.1672 0.0581,0.309601 0.1755,0.427001 0.1175,0.1168 0.259201,0.1756 0.427101,0.1756 l 3.11321,0 c 0.1672,0 0.317901,-0.0588 0.451901,-0.1756 0.1341,-0.1174 0.201101,-0.259801 0.201101,-0.427001 l 0,-13.0062 c 0,-0.401501 0.200401,-0.602602 0.602602,-0.602602 l 4.21811,0 c 0.435401,0 0.702802,0.201101 0.803102,0.602602 l 3.81661,13.0062 c 0.1002,0.401501 0.351701,0.602602 0.753202,0.602602 l 3.31431,0 c 0.1672,0 0.301301,-0.0588 0.401501,-0.1756 0.1008,-0.1174 0.1174,-0.259801 0.0504,-0.427001 l -4.11791,-14.1609 c -0.1002,-0.368401 0.0172,-0.669702 0.351701,-0.903902 1.2052,-0.803702 2.16781,-1.8499 2.88731,-3.13871 0.720002,-1.2888 1.08,-2.72001 1.08,-4.29351 z m -4.36881,0 c 0,1.2722 -0.435301,2.34341 -1.306,3.21401 -0.870102,0.870102 -1.9246,1.3054 -3.16361,1.3054 l -4.71991,0 c -0.1679,0 -0.309601,-0.0587 -0.427101,-0.1755 -0.1174,-0.1174 -0.1755,-0.259801 -0.1755,-0.427001 l 0,-12.9558 c 0,-0.435301 0.200401,-0.653002 0.602602,-0.653002 l 4.71991,0 c 1.239,0 2.29351,0.435401 3.16361,1.306 0.870702,0.870102 1.306,1.9418 1.306,3.21351 l 0,5.17241 z m 25.4596,22.4971 0,-3.16361 c 0,-0.1673 -0.067,-0.309601 -0.201,-0.427101 -0.1341,-0.1168 -0.2847,-0.1755 -0.452,-0.1755 l -12.9557,0 c -0.1673,0 -0.3096,-0.0587 -0.4271,-0.1756 -0.1168,-0.1174 -0.1755,-0.259801 -0.1755,-0.427001 l 0,-10.7963 c 0,-0.1678 0.0587,-0.310201 0.1755,-0.427001 0.1175,-0.1174 0.2598,-0.1756 0.4271,-0.1756 l 11.4492,0 c 0.4354,0 0.653,-0.217601 0.653,-0.653002 l 0,-3.11321 c 0,-0.402101 -0.2176,-0.602502 -0.653,-0.602502 l -11.4492,0 c -0.1673,0 -0.3096,-0.0671 -0.4271,-0.201101 -0.1168,-0.134 -0.1755,-0.284701 -0.1755,-0.452001 l 0,-10.7464 c 0,-0.1672 0.0587,-0.317901 0.1755,-0.451901 0.1175,-0.1341 0.2598,-0.201101 0.4271,-0.201101 l 12.9557,0 c 0.4353,0 0.653,-0.200401 0.653,-0.602602 l 0,-3.11321 c 0,-0.435301 -0.2177,-0.653002 -0.653,-0.653002 l -17.324502,0 c -0.1673,0 -0.309601,0.067 -0.427001,0.201101 -0.1169,0.134 -0.1756,0.284701 -0.1756,0.451901 l 0,35.9048 c 0,0.1672 0.0587,0.309601 0.1756,0.427001 0.1174,0.1168 0.259701,0.1756 0.427001,0.1756 l 17.324502,0 c 0.4353,0 0.653,-0.201101 0.653,-0.602602 z m 20.6893,0 0,-3.16361 c 0,-0.1673 -0.067,-0.309601 -0.2011,-0.427101 -0.134,-0.1168 -0.2846,-0.1755 -0.4519,-0.1755 l -12.9557,0 c -0.1673,0 -0.3096,-0.0587 -0.4271,-0.1756 -0.1168,-0.1174 -0.1755,-0.259801 -0.1755,-0.427001 l 0,-10.7963 c 0,-0.1678 0.0587,-0.310201 0.1755,-0.427001 0.1175,-0.1174 0.2598,-0.1756 0.4271,-0.1756 l 11.4492,0 c 0.4354,0 0.653,-0.217601 0.653,-0.653002 l 0,-3.11321 c 0,-0.402101 -0.2176,-0.602502 -0.653,-0.602502 l -11.4492,0 c -0.1673,0 -0.3096,-0.0671 -0.4271,-0.201101 -0.1168,-0.134 -0.1755,-0.284701 -0.1755,-0.452001 l 0,-10.7464 c 0,-0.1672 0.0587,-0.317901 0.1755,-0.451901 0.1175,-0.1341 0.2598,-0.201101 0.4271,-0.201101 l 12.9557,0 c 0.4353,0 0.653,-0.200401 0.653,-0.602602 l 0,-3.11321 c 0,-0.435301 -0.2177,-0.653002 -0.653,-0.653002 l -17.3245,0 c -0.1673,0 -0.3096,0.067 -0.4271,0.201101 -0.1168,0.134 -0.1755,0.284701 -0.1755,0.451901 l 0,35.9048 c 0,0.1672 0.0587,0.309601 0.1755,0.427001 0.1175,0.1168 0.2598,0.1756 0.4271,0.1756 l 17.3245,0 c 0.4353,0 0.653,-0.201101 0.653,-0.602602 z m 33.6444,0 0,-35.9048 c 0,-0.435301 -0.2004,-0.653002 -0.6026,-0.653002 l -3.26381,0 c -0.4015,0 -0.6862,0.201101 -0.8535,0.602602 l -6.52832,17.3251 c -0.067,0.1003 -0.1506,0.1507 -0.25081,0.1507 -0.1009,0 -0.1673,-0.0504 -0.2011,-0.1507 l -6.52832,-17.3251 c -0.1672,-0.401501 -0.4519,-0.602602 -0.8535,-0.602602 l -3.26381,0 c -0.4021,0 -0.6026,0.217701 -0.6026,0.653002 l 0,35.9048 c 0,0.401501 0.2005,0.602602 0.6026,0.602602 l 3.11321,0 c 0.4353,0 0.653,-0.201101 0.653,-0.602602 l 0,-23.1495 c 0,-0.134 0.0581,-0.217701 0.1756,-0.251501 0.1174,-0.0332 0.20931,0.0166 0.2763,0.1507 l 4.77041,12.6544 c 0.1672,0.402101 0.45191,0.602602 0.85341,0.602602 l 2.05931,0 c 0.4015,0 0.6862,-0.200501 0.8535,-0.602602 l 4.77031,-12.6544 c 0.067,-0.1341 0.1595,-0.1922 0.2764,-0.1756 0.1174,0.0166 0.1755,0.1085 0.1755,0.276401 l 0,23.1495 c 0,0.401501 0.2177,0.602602 0.653,0.602602 l 3.11321,0 c 0.4022,0 0.6026,-0.201101 0.6026,-0.602602 z m 21.2415,-7.93402 0,-27.9708 c 0,-0.401501 -0.2005,-0.602602 -0.6026,-0.602602 l -3.11321,0 c -0.4353,0 -0.653,0.201101 -0.653,0.602602 l 0,27.9708 c 0,1.2722 -0.4347,2.34341 -1.3054,3.21351 -0.87011,0.870602 -1.9246,1.306 -3.16361,1.306 l -0.85351,0 c -1.239,0 -2.29351,-0.435401 -3.16361,-1.306 -0.8707,-0.870102 -1.306,-1.9413 -1.306,-3.21351 l 0,-27.9708 c 0,-0.401501 -0.2177,-0.602602 -0.6524,-0.602602 l -3.11381,0 c -0.4015,0 -0.6026,0.201101 -0.6026,0.602602 l 0,27.9708 c 0,1.2384 0.2343,2.39321 0.7034,3.46491 0.4686,1.0712 1.1044,2.00831 1.908,2.81191 0.8037,0.803702 1.7408,1.4395 2.81191,1.9081 1.0718,0.469101 2.20991,0.703402 3.41511,0.703402 l 0.8535,0 c 1.2052,0 2.34331,-0.234301 3.41451,-0.703402 1.0717,-0.468601 2.00881,-1.1044 2.81251,-1.9081 0.80301,-0.803602 1.4394,-1.7407 1.908,-2.81191 0.46851,-1.0717 0.70281,-2.22651 0.70281,-3.46491 z m 20.9402,0 c 0,-1.5735 -0.2675,-3.01291 -0.8037,-4.31891 -0.5356,-1.3054 -1.4056,-2.49401 -2.61081,-3.56521 l -8.83842,-7.63262 c -0.7361,-0.636402 -1.2384,-1.2722 -1.5065,-1.9086 -0.2675,-0.635802 -0.4015,-1.5231 -0.4015,-2.66131 0,-1.2389 0.4353,-2.30181 1.3054,-3.18911 0.8707,-0.886702 1.9252,-1.3303 3.16361,-1.3303 l 0.8541,0 c 1.2384,0 2.29291,0.443601 3.16361,1.3303 0.87,0.887302 1.3054,1.9502 1.3054,3.18911 l 0,3.26391 c 0,0.435301 0.2176,0.653002 0.653,0.653002 l 3.11321,0 c 0.4015,0 0.6026,-0.217701 0.6026,-0.653002 l 0,-3.26391 c 0,-1.2051 -0.2343,-2.35161 -0.7029,-3.43991 -0.4685,-1.0878 -1.1049,-2.03381 -1.9086,-2.83751 -0.803,-0.803002 -1.7407,-1.4394 -2.81191,-1.908 -1.0711,-0.468501 -2.20931,-0.702802 -3.41441,-0.702802 l -0.8541,0 c -1.2052,0 -2.34341,0.234301 -3.41451,0.702802 -1.0711,0.468601 -2.00881,1.105 -2.81191,1.908 -0.8037,0.803702 -1.4395,1.7497 -1.9086,2.83751 -0.4686,1.0883 -0.7028,2.23481 -0.7028,3.43991 0,1.6068 0.293,3.08001 0.8789,4.41931 0.5854,1.3386 1.4312,2.47671 2.53561,3.41441 0,0 0.0421,0.0416 0.1257,0.1258 0.0836,0.0836 0.4015,0.367701 0.9543,0.853502 0.5522,0.485101 1.4312,1.2467 2.63631,2.28461 1.2052,1.0379 2.91221,2.51121 5.12211,4.41921 0.7366,0.635802 1.2384,1.3137 1.5065,2.03371 0.2674,0.719502 0.4015,1.5652 0.4015,2.53611 0,1.2722 -0.4354,2.34341 -1.3054,3.21351 -0.8707,0.870602 -1.9252,1.306 -3.16361,1.306 l -0.8541,0 c -1.2384,0 -2.29291,-0.435401 -3.16361,-1.306 -0.8701,-0.870102 -1.3054,-1.9413 -1.3054,-3.21351 l 0,-3.26441 c 0,-0.401501 -0.2177,-0.602602 -0.653,-0.602602 l -3.11321,0 c -0.4016,0 -0.6026,0.201101 -0.6026,0.602602 l 0,3.26441 c 0,1.2384 0.2342,2.39321 0.7028,3.46491 0.4691,1.0712 1.1049,2.00831 1.9086,2.81191 0.8031,0.803702 1.7408,1.4395 2.81191,1.9081 1.0711,0.469101 2.20931,0.703402 3.41451,0.703402 l 0.8541,0 c 1.2051,0 2.34331,-0.234301 3.41441,-0.703402 1.0712,-0.468601 2.00891,-1.1044 2.81191,-1.9081 0.8037,-0.803602 1.4401,-1.7407 1.9086,-2.81191 0.4686,-1.0717 0.7029,-2.22651 0.7029,-3.46491 z m 6.77912,7.93402 0,-35.9048 c 0,-0.401501 -0.201,-0.602602 -0.6026,-0.602602 l -3.11321,0 c -0.4021,0 -0.6025,0.201101 -0.6025,0.602602 l 0,35.9048 c 0,0.401501 0.2004,0.602602 0.6025,0.602602 l 3.11321,0 c 0.4016,0 0.6026,-0.201101 0.6026,-0.602602 z m 21.2415,-7.88412 0,-3.31431 c 0,-0.435301 -0.2011,-0.652402 -0.6026,-0.652402 l -3.11321,0 c -0.4353,0 -0.653,0.217101 -0.653,0.652402 l 0,3.31431 c 0,1.239 -0.4353,2.29351 -1.3054,3.16361 -0.87071,0.870602 -1.9252,1.306 -3.16361,1.306 l -0.85411,0 c -1.2384,0 -2.29291,-0.435401 -3.16361,-1.306 -0.8701,-0.870102 -1.3054,-1.9246 -1.3054,-3.16361 l 0,-20.1366 c 0,-1.2722 0.43531,-2.34331 1.3054,-3.21401 0.87071,-0.870102 1.9252,-1.3054 3.16361,-1.3054 l 0.85411,0 c 1.2384,0 2.29291,0.435301 3.16361,1.3054 0.8701,0.870702 1.3054,1.9418 1.3054,3.21401 l 0,3.31431 c 0,0.1673 0.067,0.309601 0.2011,0.427001 0.134,0.1169 0.2847,0.1756 0.4519,0.1756 l 3.11321,0 c 0.1673,0 0.3096,-0.0587 0.427,-0.1756 0.1169,-0.1174 0.1756,-0.259701 0.1756,-0.427001 l 0,-3.31431 c 0,-1.2389 -0.2343,-2.39371 -0.7028,-3.46491 -0.4686,-1.0711 -1.105,-2.00881 -1.9086,-2.81251 -0.8031,-0.803002 -1.7408,-1.4394 -2.81191,-1.908 -1.0712,-0.468501 -2.20931,-0.702802 -3.41451,-0.702802 l -0.85411,0 c -1.2052,0 -2.34331,0.234301 -3.41451,0.702802 -1.0711,0.468601 -2.00881,1.105 -2.81191,1.908 -0.8036,0.803702 -1.4394,1.7414 -1.9086,2.81251 -0.4685,1.0712 -0.7028,2.22601 -0.7028,3.46491 l 0,20.1366 c 0,1.2051 0.2343,2.34331 0.7028,3.41501 0.46921,1.0712 1.105,2.00831 1.9086,2.81191 0.80311,0.803702 1.7408,1.4395 2.81191,1.9081 1.0712,0.469101 2.20931,0.703402 3.41451,0.703402 l 0.85411,0 c 1.2052,0 2.34331,-0.234301 3.41451,-0.703402 1.0711,-0.468601 2.00881,-1.1044 2.81191,-1.9081 0.8036,-0.803602 1.44,-1.7407 1.9086,-2.81191 0.4685,-1.0717 0.7028,-2.20991 0.7028,-3.41501 z m -165.663,50.5182 0,-35.9048 c 0,-0.401501 -0.201101,-0.602602 -0.602602,-0.602602 l -3.11381,0 c -0.434701,0 -0.652402,0.201101 -0.652402,0.602602 l 0,15.1656 c 0,0.401601 -0.201001,0.602602 -0.602602,0.602602 l -8.58692,0 c -0.402101,0 -0.602602,-0.201001 -0.602602,-0.602602 l 0,-15.1656 c 0,-0.401501 -0.217701,-0.602602 -0.653002,-0.602602 l -3.11321,0 c -0.402101,0 -0.602602,0.201101 -0.602602,0.602602 l 0,35.9048 c 0,0.401501 0.200501,0.602502 0.602602,0.602502 l 3.11321,0 c 0.435301,0 0.653002,-0.201001 0.653002,-0.602502 l 0,-15.1651 c 0,-0.1678 0.0581,-0.310201 0.1756,-0.427001 0.1174,-0.1174 0.259101,-0.1756 0.427001,-0.1756 l 8.58692,0 c 0.1673,0 0.309601,0.0582 0.426501,0.1756 0.1174,0.1168 0.1761,0.259201 0.1761,0.427001 l 0,15.1651 c 0,0.401501 0.217701,0.602502 0.652402,0.602502 l 3.11381,0 c 0.401501,0 0.602602,-0.201001 0.602602,-0.602502 z m 21.2913,-7.93402 0,-27.9708 c 0,-0.401501 -0.200501,-0.602602 -0.602602,-0.602602 l -3.11321,0 c -0.435301,0 -0.653002,0.201101 -0.653002,0.602602 l 0,27.9708 c 0,1.2722 -0.434701,2.34341 -1.3054,3.21351 -0.870102,0.870602 -1.9246,1.306 -3.16361,1.306 l -0.853502,0 c -1.239,0 -2.29351,-0.435401 -3.16361,-1.306 -0.870702,-0.870102 -1.306,-1.9413 -1.306,-3.21351 l 0,-27.9708 c 0,-0.401501 -0.217701,-0.602602 -0.652402,-0.602602 l -3.11381,0 c -0.401501,0 -0.602602,0.201101 -0.602602,0.602602 l 0,27.9708 c 0,1.2384 0.234301,2.39321 0.703402,3.46491 0.468601,1.0712 1.1044,2.00831 1.908,2.81191 0.803702,0.803702 1.7408,1.4395 2.81191,1.908 1.0718,0.469201 2.20991,0.703502 3.41511,0.703502 l 0.853502,0 c 1.2052,0 2.34331,-0.234301 3.41451,-0.703502 1.0717,-0.468501 2.00881,-1.1043 2.81251,-1.908 0.803002,-0.803602 1.4394,-1.7407 1.908,-2.81191 0.468501,-1.0717 0.702802,-2.22651 0.702802,-3.46491 z m 21.2919,-0.351701 0,-3.01291 c 0,-1.2052 -0.2343,-2.34341 -0.7034,-3.41451 -0.4686,-1.0718 -1.1044,-2.00891 -1.9081,-2.81251 -0.3012,-0.301301 -0.3012,-0.586001 0,-0.853502 0.8037,-0.803702 1.4395,-1.7408 1.9081,-2.81191 0.4691,-1.0717 0.7034,-2.22651 0.7034,-3.46551 l 0,-3.01301 c 0,-1.2051 -0.2343,-2.35161 -0.7034,-3.43941 -0.4686,-1.0883 -1.1044,-2.03371 -1.9081,-2.83741 -0.8036,-0.803602 -1.7407,-1.4394 -2.81191,-1.908 -1.0711,-0.468501 -2.22651,-0.703402 -3.46491,-0.703402 l -9.089222,0 c -0.1673,0 -0.309601,0.067 -0.427101,0.201101 -0.1168,0.134 -0.1755,0.284701 -0.1755,0.451901 l 0,35.9048 c 0,0.1672 0.0587,0.309601 0.1755,0.427001 0.1175,0.1168 0.259801,0.1755 0.427101,0.1755 l 9.089222,0 c 1.2384,0 2.39381,-0.234201 3.46491,-0.702802 1.0712,-0.469101 2.00831,-1.1049 2.81191,-1.9086 0.8037,-0.803002 1.4395,-1.7407 1.9081,-2.81191 0.4691,-1.0711 0.7034,-2.22651 0.7034,-3.46491 z m -4.36881,-16.3708 c 0,1.2722 -0.4437,2.34391 -1.3309,3.21401 -0.8873,0.870702 -1.9502,1.306 -3.18861,1.306 l -4.72051,0 c -0.1672,0 -0.3096,-0.067 -0.427,-0.201001 -0.1168,-0.1341 -0.1755,-0.284701 -0.1755,-0.452001 l 0,-10.7464 c 0,-0.1672 0.0587,-0.317901 0.1755,-0.451901 0.1174,-0.1341 0.2598,-0.201101 0.427,-0.201101 l 4.72051,0 c 1.2723,0 2.34341,0.443601 3.21351,1.3309 0.8706,0.887302 1.306,1.9501 1.306,3.18851 l 0,3.01301 z m 0,16.3708 c 0,1.2722 -0.4354,2.34341 -1.306,3.21401 -0.8701,0.870102 -1.9412,1.3055 -3.21351,1.3055 l -4.72051,0 c -0.1672,0 -0.3096,-0.0588 -0.427,-0.1756 -0.1168,-0.1174 -0.1755,-0.259801 -0.1755,-0.427001 l 0,-10.7963 c 0,-0.1678 0.0587,-0.310201 0.1755,-0.427001 0.1174,-0.1174 0.2598,-0.1756 0.427,-0.1756 l 4.72051,0 c 1.2723,0 2.34341,0.434801 3.21351,1.3054 0.8706,0.870102 1.306,1.9247 1.306,3.16371 l 0,3.01291 z"
     id="path12"
     style="fill:#005197;fill-rule:nonzero" /><g
     id="flowRoot2834"
     style="font-size:36.57398987px;font-style:normal;font-variant:normal;font-weight:bold;font-stretch:normal;text-align:start;line-height:300%;writing-mode:lr-tb;text-anchor:start;fill:#005197;fill-opacity:0.75294118;stroke:none;font-family:Barok_Maniak;-inkscape-font-specification:Barok_Maniak Bold"
     transform="matrix(1.372535,0,0,1.3728147,-435.11048,-177.57274)"><path
       id="path4411"
       style="fill:#005197;font-family:Barok_Maniak;-inkscape-font-specification:Barok_Maniak Bold"
       d="m 441.05112,176.89471 0,-3.76712 c -1e-5,-0.90213 -0.17069,-1.74333 -0.51203,-2.5236 -0.34137,-0.78022 -0.80464,-1.46294 -1.38981,-2.04815 -0.5852,-0.58515 -1.26791,-1.04842 -2.04815,-1.38981 -0.78025,-0.34133 -1.60926,-0.51201 -2.48703,-0.51203 l -6.61989,0 c -0.29259,2e-5 -0.43889,0.15851 -0.43889,0.47546 l 0,26.1504 c 0,0.12192 0.0366,0.23164 0.10972,0.32917 0.0975,0.0731 0.20725,0.10972 0.32917,0.10972 l 2.26759,0 c 0.12191,0 0.23163,-0.0366 0.32916,-0.10972 0.0975,-0.0975 0.14629,-0.20725 0.1463,-0.32917 l 0,-9.47266 c -10e-6,-0.29258 0.14629,-0.43888 0.43889,-0.43889 l 3.07221,0 c 0.31697,1e-5 0.51203,0.14631 0.58519,0.43889 l 2.77962,9.47266 c 0.0731,0.29259 0.25601,0.43889 0.54861,0.43889 l 2.41388,0 c 0.1219,0 0.21943,-0.0366 0.29259,-0.10972 0.0731,-0.0975 0.0853,-0.20725 0.0366,-0.32917 L 437.90576,182.966 c -0.0732,-0.2682 0.0122,-0.48764 0.25602,-0.65833 0.87776,-0.58518 1.57267,-1.34104 2.08472,-2.26759 0.5364,-0.95091 0.80461,-1.99936 0.80462,-3.14537 m -3.18193,0 c -1e-5,0.92656 -0.31699,1.70681 -0.95093,2.34074 -0.63396,0.63396 -1.40201,0.95094 -2.30416,0.95092 l -3.43795,0 c -0.12192,2e-5 -0.23164,-0.0366 -0.32917,-0.10972 -0.0731,-0.0975 -0.10973,-0.20724 -0.10972,-0.32916 l 0,-9.43609 c -10e-6,-0.31695 0.14629,-0.47544 0.43889,-0.47547 l 3.43795,0 c 0.90215,3e-5 1.6702,0.317 2.30416,0.95093 0.63394,0.63397 0.95092,1.41421 0.95093,2.34073 l 0,3.76712" /><path
       id="path4413"
       style="fill:#005197;font-family:Barok_Maniak;-inkscape-font-specification:Barok_Maniak Bold"
       d="m 455.67786,193.27986 -5.01063,-26.18697 c -0.0488,-0.29257 -0.21946,-0.43887 -0.51204,-0.43889 l -2.23101,0 c -0.2926,2e-5 -0.47547,0.14632 -0.54861,0.43889 l -5.01064,26.18697 c -0.0244,0.12192 0,0.23164 0.0731,0.32917 0.0731,0.0731 0.17068,0.10972 0.29259,0.10972 l 2.34074,0 c 0.29258,0 0.47545,-0.1463 0.54861,-0.43889 l 0.65833,-3.54767 c 0.0731,-0.29259 0.25601,-0.43889 0.54861,-0.43889 l 4.38888,0 c 0.31696,0 0.49983,0.1463 0.54861,0.43889 l 0.6949,3.54767 c 0.0488,0.29259 0.21943,0.43889 0.51204,0.43889 l 2.34073,0 c 0.1219,0 0.21943,-0.0366 0.29259,-0.10972 0.0731,-0.0975 0.0975,-0.20725 0.0731,-0.32917 m -4.68147,-7.60739 c 0.0244,0.12192 -1e-5,0.23165 -0.0731,0.32917 -0.0731,0.0731 -0.17068,0.10973 -0.29259,0.10972 l -3.18194,0 c -0.12191,1e-5 -0.23164,-0.0366 -0.32916,-0.10972 -0.0731,-0.0975 -0.0854,-0.20725 -0.0366,-0.32917 l 1.75556,-9.32637 c 0.0244,-0.12189 0.0853,-0.18285 0.18287,-0.18287 0.0975,2e-5 0.15848,0.061 0.18287,0.18287 l 1.79212,9.32637" /><path
       id="path4415"
       style="fill:#005197;font-family:Barok_Maniak;-inkscape-font-specification:Barok_Maniak Bold"
       d="m 470.65948,187.24515 0,-14.11756 c -10e-6,-0.87775 -0.17069,-1.70676 -0.51203,-2.48703 -0.34137,-0.8046 -0.80465,-1.49951 -1.38982,-2.08472 -0.58519,-0.58515 -1.26791,-1.04842 -2.04814,-1.38981 -0.78025,-0.34133 -1.60926,-0.51201 -2.48703,-0.51203 l -6.61989,0 c -0.2926,2e-5 -0.43889,0.15851 -0.43889,0.47546 l 0,26.1504 c 0,0.29259 0.14629,0.43889 0.43889,0.43889 l 6.61989,0 c 0.87777,0 1.70678,-0.17068 2.48703,-0.51204 0.78023,-0.34135 1.46295,-0.80462 2.04814,-1.38981 0.58517,-0.58518 1.04845,-1.26789 1.38982,-2.04814 0.34134,-0.78024 0.51202,-1.62144 0.51203,-2.52361 m -3.18194,0 c -10e-6,0.92655 -0.31698,1.70679 -0.95092,2.34074 -0.63396,0.63395 -1.40201,0.95093 -2.30416,0.95092 l -3.43796,0 c -0.29259,1e-5 -0.43889,-0.14629 -0.43888,-0.43888 l 0,-19.78653 c -10e-6,-0.31695 0.14629,-0.47544 0.43888,-0.47547 l 3.43796,0 c 0.90215,3e-5 1.6702,0.32919 2.30416,0.9875 0.63394,0.63397 0.95091,1.40203 0.95092,2.30416 l 0,14.11756" /><path
       id="path4417"
       style="fill:#005197;font-family:Barok_Maniak;-inkscape-font-specification:Barok_Maniak Bold"
       d="m 475.70384,193.27986 0,-26.1504 c -1e-5,-0.29257 -0.1463,-0.43886 -0.43889,-0.43889 l -2.26759,0 c -0.29259,3e-5 -0.43889,0.14632 -0.43889,0.43889 l 0,26.1504 c 0,0.29259 0.1463,0.43889 0.43889,0.43889 l 2.26759,0 c 0.29259,0 0.43888,-0.1463 0.43889,-0.43889" /><path
       id="path4419"
       style="fill:#005197;font-family:Barok_Maniak;-inkscape-font-specification:Barok_Maniak Bold"
       d="m 491.23064,187.50117 0,-14.62959 c -2e-5,-0.87776 -0.1707,-1.70677 -0.51204,-2.48704 -0.34137,-0.8046 -0.80464,-1.4995 -1.38981,-2.08471 -0.5852,-0.58516 -1.26791,-1.04843 -2.04814,-1.38981 -0.78026,-0.34133 -1.60927,-0.51201 -2.48704,-0.51204 l -0.62175,0 c -0.87779,3e-5 -1.7068,0.17071 -2.48704,0.51204 -0.78024,0.34138 -1.46296,0.80465 -2.04814,1.38981 -0.58518,0.58521 -1.04845,1.28011 -1.38981,2.08471 -0.34136,0.78027 -0.51204,1.60928 -0.51204,2.48704 l 0,14.62959 c 0,0.90217 0.17068,1.74337 0.51204,2.52361 0.34136,0.78025 0.80463,1.46296 1.38981,2.04814 0.58518,0.58519 1.2679,1.04846 2.04814,1.38981 0.78024,0.34136 1.60925,0.51204 2.48704,0.51204 l 0.62175,0 c 0.87777,0 1.70678,-0.17068 2.48704,-0.51204 0.78023,-0.34135 1.46294,-0.80462 2.04814,-1.38981 0.58517,-0.58518 1.04844,-1.26789 1.38981,-2.04814 0.34134,-0.78024 0.51202,-1.62144 0.51204,-2.52361 m -3.18194,0 c -10e-6,0.92655 -0.31699,1.70679 -0.95092,2.34074 -0.63396,0.63395 -1.40202,0.95092 -2.30417,0.95092 l -0.62175,0 c -0.90217,0 -1.67022,-0.31697 -2.30417,-0.95092 -0.63395,-0.63395 -0.95092,-1.41419 -0.95092,-2.34074 l 0,-14.62959 c 0,-0.92652 0.31697,-1.70677 0.95092,-2.34074 0.63395,-0.63392 1.402,-0.9509 2.30417,-0.95092 l 0.62175,0 c 0.90215,2e-5 1.67021,0.317 2.30417,0.95092 0.63393,0.63397 0.95091,1.41422 0.95092,2.34074 l 0,14.62959" /></g></g></svg>