<?xml version="1.0" encoding="UTF-8" standalone="no"?>
<!-- Created with Inkscape (http://www.inkscape.org/) -->

<svg
   xmlns:dc="http://purl.org/dc/elements/1.1/"
   xmlns:cc="http://creativecommons.org/ns#"
   xmlns:rdf="http://www.w3.org/1999/02/22-rdf-syntax-ns#"
   xmlns:svg="http://www.w3.org/2000/svg"
   xmlns="http://www.w3.org/2000/svg"
   xmlns:sodipodi="http://sodipodi.sourceforge.net/DTD/sodipodi-0.dtd"
   xmlns:inkscape="http://www.inkscape.org/namespaces/inkscape"
   version="1.0"
   width="104"
   height="125"
   id="svg2"
   inkscape:version="0.47 r22583"
   sodipodi:docname="stars-5x6.svg">
  <title
     id="title4224">Stars 5×6</title>
  <metadata
     id="metadata8">
    <rdf:RDF>
      <cc:Work
         rdf:about="">
        <dc:format>image/svg+xml</dc:format>
        <dc:type
           rdf:resource="http://purl.org/dc/dcmitype/StillImage" />
        <dc:title>Stars 5×6</dc:title>
        <dc:description>Original star: http://keroro.wikia.com/wiki/File:Keron_star.svg</dc:description>
      </cc:Work>
    </rdf:RDF>
  </metadata>
  <sodipodi:namedview
     pagecolor="#ffffff"
     bordercolor="#666666"
     borderopacity="1"
     objecttolerance="10"
     gridtolerance="10"
     guidetolerance="10"
     inkscape:pageopacity="0"
     inkscape:pageshadow="2"
     inkscape:window-width="1680"
     inkscape:window-height="976"
     id="namedview6"
     showgrid="false"
     showguides="true"
     inkscape:guide-bbox="true"
     inkscape:zoom="4"
     inkscape:cx="32.301754"
     inkscape:cy="65.07783"
     inkscape:window-x="0"
     inkscape:window-y="25"
     inkscape:window-maximized="1"
     inkscape:current-layer="svg2">
    <sodipodi:guide
       orientation="0,1"
       position="66.419492,0"
       id="guide2830" />
    <sodipodi:guide
       orientation="1,0"
       position="0,302.995"
       id="guide3695" />
  </sodipodi:namedview>
  <defs
     id="defs4">
    <inkscape:perspective
       sodipodi:type="inkscape:persp3d"
       inkscape:vp_x="0 : 200 : 1"
       inkscape:vp_y="0 : 1000 : 0"
       inkscape:vp_z="400 : 200 : 1"
       inkscape:persp3d-origin="200 : 133.33333 : 1"
       id="perspective10" />
    <inkscape:perspective
       id="perspective2824"
       inkscape:persp3d-origin="0.5 : 0.33333333 : 1"
       inkscape:vp_z="1 : 0.5 : 1"
       inkscape:vp_y="0 : 1000 : 0"
       inkscape:vp_x="0 : 0.5 : 1"
       sodipodi:type="inkscape:persp3d" />
    <inkscape:perspective
       id="perspective2824-4"
       inkscape:persp3d-origin="0.5 : 0.33333333 : 1"
       inkscape:vp_z="1 : 0.5 : 1"
       inkscape:vp_y="0 : 1000 : 0"
       inkscape:vp_x="0 : 0.5 : 1"
       sodipodi:type="inkscape:persp3d" />
    <inkscape:perspective
       id="perspective2824-5"
       inkscape:persp3d-origin="0.5 : 0.33333333 : 1"
       inkscape:vp_z="1 : 0.5 : 1"
       inkscape:vp_y="0 : 1000 : 0"
       inkscape:vp_x="0 : 0.5 : 1"
       sodipodi:type="inkscape:persp3d" />
    <inkscape:perspective
       id="perspective2824-53"
       inkscape:persp3d-origin="0.5 : 0.33333333 : 1"
       inkscape:vp_z="1 : 0.5 : 1"
       inkscape:vp_y="0 : 1000 : 0"
       inkscape:vp_x="0 : 0.5 : 1"
       sodipodi:type="inkscape:persp3d" />
    <inkscape:perspective
       id="perspective3705"
       inkscape:persp3d-origin="0.5 : 0.33333333 : 1"
       inkscape:vp_z="1 : 0.5 : 1"
       inkscape:vp_y="0 : 1000 : 0"
       inkscape:vp_x="0 : 0.5 : 1"
       sodipodi:type="inkscape:persp3d" />
    <inkscape:perspective
       id="perspective3705-7"
       inkscape:persp3d-origin="0.5 : 0.33333333 : 1"
       inkscape:vp_z="1 : 0.5 : 1"
       inkscape:vp_y="0 : 1000 : 0"
       inkscape:vp_x="0 : 0.5 : 1"
       sodipodi:type="inkscape:persp3d" />
    <inkscape:perspective
       id="perspective3705-6"
       inkscape:persp3d-origin="0.5 : 0.33333333 : 1"
       inkscape:vp_z="1 : 0.5 : 1"
       inkscape:vp_y="0 : 1000 : 0"
       inkscape:vp_x="0 : 0.5 : 1"
       sodipodi:type="inkscape:persp3d" />
    <inkscape:perspective
       id="perspective3705-8"
       inkscape:persp3d-origin="0.5 : 0.33333333 : 1"
       inkscape:vp_z="1 : 0.5 : 1"
       inkscape:vp_y="0 : 1000 : 0"
       inkscape:vp_x="0 : 0.5 : 1"
       sodipodi:type="inkscape:persp3d" />
    <inkscape:perspective
       id="perspective3826"
       inkscape:persp3d-origin="0.5 : 0.33333333 : 1"
       inkscape:vp_z="1 : 0.5 : 1"
       inkscape:vp_y="0 : 1000 : 0"
       inkscape:vp_x="0 : 0.5 : 1"
       sodipodi:type="inkscape:persp3d" />
    <inkscape:perspective
       id="perspective3877"
       inkscape:persp3d-origin="0.5 : 0.33333333 : 1"
       inkscape:vp_z="1 : 0.5 : 1"
       inkscape:vp_y="0 : 1000 : 0"
       inkscape:vp_x="0 : 0.5 : 1"
       sodipodi:type="inkscape:persp3d" />
    <inkscape:perspective
       id="perspective3899"
       inkscape:persp3d-origin="0.5 : 0.33333333 : 1"
       inkscape:vp_z="1 : 0.5 : 1"
       inkscape:vp_y="0 : 1000 : 0"
       inkscape:vp_x="0 : 0.5 : 1"
       sodipodi:type="inkscape:persp3d" />
    <inkscape:perspective
       id="perspective3924"
       inkscape:persp3d-origin="0.5 : 0.33333333 : 1"
       inkscape:vp_z="1 : 0.5 : 1"
       inkscape:vp_y="0 : 1000 : 0"
       inkscape:vp_x="0 : 0.5 : 1"
       sodipodi:type="inkscape:persp3d" />
    <inkscape:perspective
       id="perspective3955"
       inkscape:persp3d-origin="0.5 : 0.33333333 : 1"
       inkscape:vp_z="1 : 0.5 : 1"
       inkscape:vp_y="0 : 1000 : 0"
       inkscape:vp_x="0 : 0.5 : 1"
       sodipodi:type="inkscape:persp3d" />
    <inkscape:perspective
       id="perspective3989"
       inkscape:persp3d-origin="0.5 : 0.33333333 : 1"
       inkscape:vp_z="1 : 0.5 : 1"
       inkscape:vp_y="0 : 1000 : 0"
       inkscape:vp_x="0 : 0.5 : 1"
       sodipodi:type="inkscape:persp3d" />
    <inkscape:perspective
       id="perspective4038"
       inkscape:persp3d-origin="0.5 : 0.33333333 : 1"
       inkscape:vp_z="1 : 0.5 : 1"
       inkscape:vp_y="0 : 1000 : 0"
       inkscape:vp_x="0 : 0.5 : 1"
       sodipodi:type="inkscape:persp3d" />
  </defs>
  <g
     id="g4192"
     transform="translate(0,-275)">
    <path
       d="m 10.000005,381.40233 c 0.3778,0 2.78833,5.52964 3.09398,5.7517 0.30564,0.22207 6.30954,0.80587 6.42628,1.16518 0.11675,0.35931 -4.39736,4.36062 -4.5141,4.71993 -0.11675,0.35931 1.18334,6.24975 0.87769,6.47182 -0.30565,0.22207 -5.50605,-2.83463 -5.88385,-2.83463 -0.3778098,0 -5.5782096,3.0567 -5.8838496,2.83463 -0.30565,-0.22207 0.99443,-6.11252 0.87768,-6.47182 -0.11674,-0.35931 -4.63085095,-4.36062 -4.51410495,-4.71993 0.116747,-0.35931 6.12064495,-0.94311 6.42629495,-1.16518 0.30565,-0.22206 2.7161698,-5.7517 3.0939796,-5.7517 z"
       style="fill:#ffff00;fill-opacity:1;stroke:#000000;stroke-width:0.95500922;stroke-linecap:round;stroke-miterlimit:4;stroke-opacity:1;stroke-dasharray:none"
       id="path2160-0" />
    <path
       d="m 31.000005,381.40232 c 0.3778,0 2.78833,5.52964 3.09398,5.7517 0.30564,0.22207 6.30954,0.80587 6.42628,1.16518 0.11675,0.35931 -4.39736,4.36063 -4.5141,4.71994 -0.11675,0.35931 1.18334,6.24975 0.87769,6.47182 -0.30565,0.22207 -5.50605,-2.83463 -5.88385,-2.83463 -0.37781,0 -5.57821,3.0567 -5.88385,2.83463 -0.30565,-0.22207 0.99443,-6.11252 0.87768,-6.47182 -0.11674,-0.35931 -4.630851,-4.36063 -4.514105,-4.71994 0.116747,-0.35931 6.120645,-0.94311 6.426295,-1.16518 0.30565,-0.22206 2.71617,-5.7517 3.09398,-5.7517 z"
       style="fill:#ffff00;fill-opacity:1;stroke:#000000;stroke-width:0.95500922;stroke-linecap:round;stroke-miterlimit:4;stroke-opacity:1;stroke-dasharray:none"
       id="path2160-0-0" />
    <path
       d="m 52.000004,381.40233 c 0.3778,0 2.78833,5.52964 3.09398,5.7517 0.30564,0.22207 6.30954,0.80587 6.42628,1.16518 0.11675,0.35931 -4.39736,4.36062 -4.5141,4.71993 -0.11675,0.35931 1.18334,6.24975 0.87769,6.47182 -0.30565,0.22207 -5.50605,-2.83463 -5.88385,-2.83463 -0.377809,0 -5.578209,3.0567 -5.883849,2.83463 -0.30565,-0.22207 0.99443,-6.11252 0.87768,-6.47182 -0.11674,-0.35931 -4.630851,-4.36062 -4.514105,-4.71993 0.116747,-0.35931 6.120645,-0.94311 6.426295,-1.16518 0.30565,-0.22206 2.71617,-5.7517 3.093979,-5.7517 z"
       style="fill:#ffff00;fill-opacity:1;stroke:#000000;stroke-width:0.95500922;stroke-linecap:round;stroke-miterlimit:4;stroke-opacity:1;stroke-dasharray:none"
       id="path2160-0-8" />
    <path
       d="m 73.000004,381.40232 c 0.3778,0 2.78833,5.52964 3.09398,5.7517 0.30564,0.22207 6.30954,0.80587 6.42628,1.16518 0.11675,0.35931 -4.39736,4.36063 -4.5141,4.71994 -0.11675,0.35931 1.18334,6.24975 0.87769,6.47182 -0.30565,0.22207 -5.50605,-2.83463 -5.88385,-2.83463 -0.37781,0 -5.57821,3.0567 -5.88385,2.83463 -0.30565,-0.22207 0.99443,-6.11252 0.87768,-6.47182 -0.11674,-0.35931 -4.630851,-4.36063 -4.514105,-4.71994 0.116747,-0.35931 6.120645,-0.94311 6.426295,-1.16518 0.30565,-0.22206 2.71617,-5.7517 3.09398,-5.7517 z"
       style="fill:#ffff00;fill-opacity:1;stroke:#000000;stroke-width:0.95500922;stroke-linecap:round;stroke-miterlimit:4;stroke-opacity:1;stroke-dasharray:none"
       id="path2160-0-0-7" />
    <path
       d="m 94.000005,381.40233 c 0.3778,0 2.78833,5.52964 3.09398,5.7517 0.30564,0.22207 6.309545,0.80587 6.426285,1.16518 0.11675,0.35931 -4.397365,4.36062 -4.514105,4.71993 -0.11675,0.35931 1.183345,6.24975 0.87769,6.47182 -0.30565,0.22207 -5.50605,-2.83463 -5.88385,-2.83463 -0.37781,0 -5.57821,3.0567 -5.88385,2.83463 -0.30565,-0.22207 0.99443,-6.11252 0.87768,-6.47182 -0.11674,-0.35931 -4.630851,-4.36062 -4.514105,-4.71993 0.116747,-0.35931 6.120645,-0.94311 6.426295,-1.16518 0.30565,-0.22206 2.71617,-5.7517 3.09398,-5.7517 z"
       style="fill:#ffff00;fill-opacity:1;stroke:#000000;stroke-width:0.95500922;stroke-linecap:round;stroke-miterlimit:4;stroke-opacity:1;stroke-dasharray:none"
       id="path2160-0-4" />
    <path
       d="m 10.000005,360.40233 c 0.3778,0 2.78833,5.52964 3.09398,5.7517 0.30564,0.22207 6.30954,0.80587 6.42628,1.16518 0.11675,0.35931 -4.39736,4.36062 -4.5141,4.71993 -0.11675,0.35931 1.18334,6.24975 0.87769,6.47182 -0.30565,0.22207 -5.50605,-2.83463 -5.88385,-2.83463 -0.3778096,0 -5.5782096,3.0567 -5.8838496,2.83463 -0.30565,-0.22207 0.99443,-6.11252 0.87768,-6.47182 -0.11674,-0.35931 -4.63085095,-4.36062 -4.51410495,-4.71993 0.116747,-0.35931 6.12064495,-0.94311 6.42629495,-1.16518 0.30565,-0.22206 2.71617,-5.7517 3.0939796,-5.7517 z"
       style="fill:#ffff00;fill-opacity:1;stroke:#000000;stroke-width:0.95500922;stroke-linecap:round;stroke-miterlimit:4;stroke-opacity:1;stroke-dasharray:none"
       id="path2160-0-02" />
    <path
       d="m 31.000005,360.40232 c 0.3778,0 2.78833,5.52964 3.09398,5.7517 0.30564,0.22207 6.30954,0.80587 6.42628,1.16518 0.11675,0.35931 -4.39736,4.36063 -4.5141,4.71994 -0.11675,0.35931 1.18334,6.24975 0.87769,6.47182 -0.30565,0.22207 -5.50605,-2.83463 -5.88385,-2.83463 -0.37781,0 -5.57821,3.0567 -5.88385,2.83463 -0.30565,-0.22207 0.99443,-6.11252 0.87768,-6.47182 -0.11674,-0.35931 -4.630851,-4.36063 -4.514105,-4.71994 0.116747,-0.35931 6.120645,-0.94311 6.426295,-1.16518 0.30565,-0.22206 2.71617,-5.7517 3.09398,-5.7517 z"
       style="fill:#ffff00;fill-opacity:1;stroke:#000000;stroke-width:0.95500922;stroke-linecap:round;stroke-miterlimit:4;stroke-opacity:1;stroke-dasharray:none"
       id="path2160-0-0-72" />
    <path
       d="m 52.000004,360.40233 c 0.3778,0 2.78833,5.52964 3.09398,5.7517 0.30564,0.22207 6.30954,0.80587 6.42628,1.16518 0.11675,0.35931 -4.39736,4.36062 -4.5141,4.71993 -0.11675,0.35931 1.18334,6.24975 0.87769,6.47182 -0.30565,0.22207 -5.50605,-2.83463 -5.88385,-2.83463 -0.377809,0 -5.578209,3.0567 -5.883849,2.83463 -0.30565,-0.22207 0.99443,-6.11252 0.87768,-6.47182 -0.11674,-0.35931 -4.630851,-4.36062 -4.514105,-4.71993 0.116747,-0.35931 6.120645,-0.94311 6.426295,-1.16518 0.30565,-0.22206 2.71617,-5.7517 3.093979,-5.7517 z"
       style="fill:#ffff00;fill-opacity:1;stroke:#000000;stroke-width:0.95500922;stroke-linecap:round;stroke-miterlimit:4;stroke-opacity:1;stroke-dasharray:none"
       id="path2160-0-8-0" />
    <path
       d="m 73.000004,360.40232 c 0.3778,0 2.78833,5.52964 3.09398,5.7517 0.30564,0.22207 6.30954,0.80587 6.42628,1.16518 0.11675,0.35931 -4.39736,4.36063 -4.5141,4.71994 -0.11675,0.35931 1.18334,6.24975 0.87769,6.47182 -0.30565,0.22207 -5.50605,-2.83463 -5.88385,-2.83463 -0.37781,0 -5.57821,3.0567 -5.88385,2.83463 -0.30565,-0.22207 0.99443,-6.11252 0.87768,-6.47182 -0.11674,-0.35931 -4.630851,-4.36063 -4.514105,-4.71994 0.116747,-0.35931 6.120645,-0.94311 6.426295,-1.16518 0.30565,-0.22206 2.71617,-5.7517 3.09398,-5.7517 z"
       style="fill:#ffff00;fill-opacity:1;stroke:#000000;stroke-width:0.95500922;stroke-linecap:round;stroke-miterlimit:4;stroke-opacity:1;stroke-dasharray:none"
       id="path2160-0-0-7-1" />
    <path
       d="m 94.000006,360.40233 c 0.3778,0 2.78833,5.52964 3.09398,5.7517 0.30564,0.22207 6.309544,0.80587 6.426284,1.16518 0.11675,0.35931 -4.397364,4.36062 -4.514104,4.71993 -0.11675,0.35931 1.183344,6.24975 0.87769,6.47182 -0.30565,0.22207 -5.50605,-2.83463 -5.88385,-2.83463 -0.37781,0 -5.57821,3.0567 -5.88385,2.83463 -0.30565,-0.22207 0.99443,-6.11252 0.87768,-6.47182 -0.11674,-0.35931 -4.630852,-4.36062 -4.514106,-4.71993 0.116746,-0.35931 6.120646,-0.94311 6.426296,-1.16518 0.30565,-0.22206 2.71617,-5.7517 3.09398,-5.7517 z"
       style="fill:#ffffff;fill-opacity:1;stroke:#000000;stroke-width:0.95500922;stroke-linecap:round;stroke-miterlimit:4;stroke-opacity:1;stroke-dasharray:none"
       id="path2160-0-4-6" />
    <path
       d="m 10.000005,339.40233 c 0.3778,0 2.78833,5.52964 3.09398,5.7517 0.30564,0.22207 6.30954,0.80587 6.42628,1.16518 0.11675,0.35931 -4.39736,4.36062 -4.5141,4.71993 -0.11675,0.35931 1.18334,6.24975 0.87769,6.47182 -0.30565,0.22207 -5.50605,-2.83463 -5.88385,-2.83463 -0.3778096,0 -5.5782096,3.0567 -5.8838496,2.83463 -0.30565,-0.22207 0.99443,-6.11252 0.87768,-6.47182 -0.11674,-0.35931 -4.63085095,-4.36062 -4.51410495,-4.71993 0.116747,-0.35931 6.12064495,-0.94311 6.42629495,-1.16518 0.30565,-0.22206 2.71617,-5.7517 3.0939796,-5.7517 z"
       style="fill:#ffff00;fill-opacity:1;stroke:#000000;stroke-width:0.95500922;stroke-linecap:round;stroke-miterlimit:4;stroke-opacity:1;stroke-dasharray:none"
       id="path2160-0-08" />
    <path
       d="m 31.000005,339.40232 c 0.3778,0 2.78833,5.52964 3.09398,5.7517 0.30564,0.22207 6.30954,0.80587 6.42628,1.16518 0.11675,0.35931 -4.39736,4.36063 -4.5141,4.71994 -0.11675,0.35931 1.18334,6.24975 0.87769,6.47182 -0.30565,0.22207 -5.50605,-2.83463 -5.88385,-2.83463 -0.37781,0 -5.57821,3.0567 -5.88385,2.83463 -0.30565,-0.22207 0.99443,-6.11252 0.87768,-6.47182 -0.11674,-0.35931 -4.630851,-4.36063 -4.514105,-4.71994 0.116747,-0.35931 6.120645,-0.94311 6.426295,-1.16518 0.30565,-0.22206 2.71617,-5.7517 3.09398,-5.7517 z"
       style="fill:#ffff00;fill-opacity:1;stroke:#000000;stroke-width:0.95500922;stroke-linecap:round;stroke-miterlimit:4;stroke-opacity:1;stroke-dasharray:none"
       id="path2160-0-0-0" />
    <path
       d="m 52.000004,339.40233 c 0.3778,0 2.78833,5.52964 3.09398,5.7517 0.30564,0.22207 6.30954,0.80587 6.42628,1.16518 0.11675,0.35931 -4.39736,4.36062 -4.5141,4.71993 -0.11675,0.35931 1.18334,6.24975 0.87769,6.47182 -0.30565,0.22207 -5.50605,-2.83463 -5.88385,-2.83463 -0.377809,0 -5.578209,3.0567 -5.883849,2.83463 -0.30565,-0.22207 0.99443,-6.11252 0.87768,-6.47182 -0.11674,-0.35931 -4.630851,-4.36062 -4.514105,-4.71993 0.116747,-0.35931 6.120645,-0.94311 6.426295,-1.16518 0.30565,-0.22206 2.71617,-5.7517 3.093979,-5.7517 z"
       style="fill:#ffff00;fill-opacity:1;stroke:#000000;stroke-width:0.95500922;stroke-linecap:round;stroke-miterlimit:4;stroke-opacity:1;stroke-dasharray:none"
       id="path2160-0-8-5" />
    <path
       d="m 73.000004,339.40232 c 0.3778,0 2.78833,5.52964 3.09398,5.7517 0.30564,0.22207 6.30954,0.80587 6.42628,1.16518 0.11675,0.35931 -4.39736,4.36063 -4.5141,4.71994 -0.11675,0.35931 1.18334,6.24975 0.87769,6.47182 -0.30565,0.22207 -5.50605,-2.83463 -5.88385,-2.83463 -0.37781,0 -5.57821,3.0567 -5.88385,2.83463 -0.30565,-0.22207 0.99443,-6.11252 0.87768,-6.47182 -0.11674,-0.35931 -4.630851,-4.36063 -4.514105,-4.71994 0.116747,-0.35931 6.120645,-0.94311 6.426295,-1.16518 0.30565,-0.22206 2.71617,-5.7517 3.09398,-5.7517 z"
       style="fill:#ffffff;fill-opacity:1;stroke:#000000;stroke-width:0.95500922;stroke-linecap:round;stroke-miterlimit:4;stroke-opacity:1;stroke-dasharray:none"
       id="path2160-0-0-7-9" />
    <path
       d="m 94.000005,339.40233 c 0.3778,0 2.78833,5.52964 3.09398,5.7517 0.30564,0.22207 6.309545,0.80587 6.426285,1.16518 0.11675,0.35931 -4.397365,4.36062 -4.514105,4.71993 -0.11675,0.35931 1.183345,6.24975 0.87769,6.47182 -0.30565,0.22207 -5.50605,-2.83463 -5.88385,-2.83463 -0.37781,0 -5.57821,3.0567 -5.88385,2.83463 -0.30565,-0.22207 0.99443,-6.11252 0.87768,-6.47182 -0.11674,-0.35931 -4.630851,-4.36062 -4.514105,-4.71993 0.116747,-0.35931 6.120645,-0.94311 6.426295,-1.16518 0.30565,-0.22206 2.71617,-5.7517 3.09398,-5.7517 z"
       style="fill:#ffffff;fill-opacity:1;stroke:#000000;stroke-width:0.95500922;stroke-linecap:round;stroke-miterlimit:4;stroke-opacity:1;stroke-dasharray:none"
       id="path2160-0-4-0" />
    <path
       d="m 10.000005,318.40233 c 0.3778,0 2.78833,5.52964 3.09398,5.7517 0.30564,0.22207 6.30954,0.80587 6.42628,1.16518 0.11675,0.35931 -4.39736,4.36062 -4.5141,4.71993 -0.11675,0.35931 1.18334,6.24975 0.87769,6.47182 -0.30565,0.22207 -5.50605,-2.83463 -5.88385,-2.83463 -0.3778096,0 -5.5782096,3.0567 -5.8838496,2.83463 -0.30565,-0.22207 0.99443,-6.11252 0.87768,-6.47182 -0.11674,-0.35931 -4.63085095,-4.36062 -4.51410495,-4.71993 0.116747,-0.35931 6.12064495,-0.94311 6.42629495,-1.16518 0.30565,-0.22206 2.71617,-5.7517 3.0939796,-5.7517 z"
       style="fill:#ffff00;fill-opacity:1;stroke:#000000;stroke-width:0.95500922;stroke-linecap:round;stroke-miterlimit:4;stroke-opacity:1;stroke-dasharray:none"
       id="path2160-0-02-9" />
    <path
       d="m 31.000005,318.40232 c 0.3778,0 2.78833,5.52964 3.09398,5.7517 0.30564,0.22207 6.30954,0.80587 6.42628,1.16518 0.11675,0.35931 -4.39736,4.36063 -4.5141,4.71994 -0.11675,0.35931 1.18334,6.24975 0.87769,6.47182 -0.30565,0.22207 -5.50605,-2.83463 -5.88385,-2.83463 -0.37781,0 -5.57821,3.0567 -5.88385,2.83463 -0.30565,-0.22207 0.99443,-6.11252 0.87768,-6.47182 -0.11674,-0.35931 -4.630851,-4.36063 -4.514105,-4.71994 0.116747,-0.35931 6.120645,-0.94311 6.426295,-1.16518 0.30565,-0.22206 2.71617,-5.7517 3.09398,-5.7517 z"
       style="fill:#ffff00;fill-opacity:1;stroke:#000000;stroke-width:0.95500922;stroke-linecap:round;stroke-miterlimit:4;stroke-opacity:1;stroke-dasharray:none"
       id="path2160-0-0-72-1" />
    <path
       d="m 52.000004,318.40233 c 0.3778,0 2.78833,5.52964 3.09398,5.7517 0.30564,0.22207 6.30954,0.80587 6.42628,1.16518 0.11675,0.35931 -4.39736,4.36062 -4.5141,4.71993 -0.11675,0.35931 1.18334,6.24975 0.87769,6.47182 -0.30565,0.22207 -5.50605,-2.83463 -5.88385,-2.83463 -0.377809,0 -5.578209,3.0567 -5.883849,2.83463 -0.30565,-0.22207 0.99443,-6.11252 0.87768,-6.47182 -0.11674,-0.35931 -4.630851,-4.36062 -4.514105,-4.71993 0.116747,-0.35931 6.120645,-0.94311 6.426295,-1.16518 0.30565,-0.22206 2.71617,-5.7517 3.093979,-5.7517 z"
       style="fill:#ffffff;fill-opacity:1;stroke:#000000;stroke-width:0.95500922;stroke-linecap:round;stroke-miterlimit:4;stroke-opacity:1;stroke-dasharray:none"
       id="path2160-0-8-0-8" />
    <path
       d="m 73.000004,318.40232 c 0.3778,0 2.78833,5.52964 3.09398,5.7517 0.30564,0.22207 6.30954,0.80587 6.42628,1.16518 0.11675,0.35931 -4.39736,4.36063 -4.5141,4.71994 -0.11675,0.35931 1.18334,6.24975 0.87769,6.47182 -0.30565,0.22207 -5.50605,-2.83463 -5.88385,-2.83463 -0.37781,0 -5.57821,3.0567 -5.88385,2.83463 -0.30565,-0.22207 0.99443,-6.11252 0.87768,-6.47182 -0.11674,-0.35931 -4.630851,-4.36063 -4.514105,-4.71994 0.116747,-0.35931 6.120645,-0.94311 6.426295,-1.16518 0.30565,-0.22206 2.71617,-5.7517 3.09398,-5.7517 z"
       style="fill:#ffffff;fill-opacity:1;stroke:#000000;stroke-width:0.95500922;stroke-linecap:round;stroke-miterlimit:4;stroke-opacity:1;stroke-dasharray:none"
       id="path2160-0-0-7-1-2" />
    <path
       d="m 94.000006,318.40233 c 0.3778,0 2.78833,5.52964 3.09398,5.7517 0.30564,0.22207 6.309544,0.80587 6.426284,1.16518 0.11675,0.35931 -4.397364,4.36062 -4.514104,4.71993 -0.11675,0.35931 1.183344,6.24975 0.87769,6.47182 -0.30565,0.22207 -5.50605,-2.83463 -5.88385,-2.83463 -0.37781,0 -5.57821,3.0567 -5.88385,2.83463 -0.30565,-0.22207 0.99443,-6.11252 0.87768,-6.47182 -0.11674,-0.35931 -4.630852,-4.36062 -4.514106,-4.71993 0.116746,-0.35931 6.120646,-0.94311 6.426296,-1.16518 0.30565,-0.22206 2.71617,-5.7517 3.09398,-5.7517 z"
       style="fill:#ffffff;fill-opacity:1;stroke:#000000;stroke-width:0.95500922;stroke-linecap:round;stroke-miterlimit:4;stroke-opacity:1;stroke-dasharray:none"
       id="path2160-0-4-6-8" />
    <path
       d="m 10.000005,297.40233 c 0.3778,0 2.78833,5.52964 3.09398,5.7517 0.30564,0.22207 6.30954,0.80587 6.42628,1.16518 0.11675,0.35931 -4.39736,4.36062 -4.5141,4.71993 -0.11675,0.35931 1.18334,6.24975 0.87769,6.47182 -0.30565,0.22207 -5.50605,-2.83463 -5.88385,-2.83463 -0.3778096,0 -5.5782096,3.0567 -5.8838496,2.83463 -0.30565,-0.22207 0.99443,-6.11252 0.87768,-6.47182 -0.11674,-0.35931 -4.63085095,-4.36062 -4.51410495,-4.71993 0.116747,-0.35931 6.12064495,-0.94311 6.42629495,-1.16518 0.30565,-0.22206 2.71617,-5.7517 3.0939796,-5.7517 z"
       style="fill:#ffff00;fill-opacity:1;stroke:#000000;stroke-width:0.95500922;stroke-linecap:round;stroke-miterlimit:4;stroke-opacity:1;stroke-dasharray:none"
       id="path2160-0-07" />
    <path
       d="m 31.000005,297.40232 c 0.3778,0 2.78833,5.52964 3.09398,5.7517 0.30564,0.22207 6.30954,0.80587 6.42628,1.16518 0.11675,0.35931 -4.39736,4.36063 -4.5141,4.71994 -0.11675,0.35931 1.18334,6.24975 0.87769,6.47182 -0.30565,0.22207 -5.50605,-2.83463 -5.88385,-2.83463 -0.37781,0 -5.57821,3.0567 -5.88385,2.83463 -0.30565,-0.22207 0.99443,-6.11252 0.87768,-6.47182 -0.11674,-0.35931 -4.630851,-4.36063 -4.514105,-4.71994 0.116747,-0.35931 6.120645,-0.94311 6.426295,-1.16518 0.30565,-0.22206 2.71617,-5.7517 3.09398,-5.7517 z"
       style="fill:#ffffff;fill-opacity:1;stroke:#000000;stroke-width:0.95500922;stroke-linecap:round;stroke-miterlimit:4;stroke-opacity:1;stroke-dasharray:none"
       id="path2160-0-0-1" />
    <path
       d="m 52.000004,297.40233 c 0.3778,0 2.78833,5.52964 3.09398,5.7517 0.30564,0.22207 6.30954,0.80587 6.42628,1.16518 0.11675,0.35931 -4.39736,4.36062 -4.5141,4.71993 -0.11675,0.35931 1.18334,6.24975 0.87769,6.47182 -0.30565,0.22207 -5.50605,-2.83463 -5.88385,-2.83463 -0.377809,0 -5.578209,3.0567 -5.883849,2.83463 -0.30565,-0.22207 0.99443,-6.11252 0.87768,-6.47182 -0.11674,-0.35931 -4.630851,-4.36062 -4.514105,-4.71993 0.116747,-0.35931 6.120645,-0.94311 6.426295,-1.16518 0.30565,-0.22206 2.71617,-5.7517 3.093979,-5.7517 z"
       style="fill:#ffffff;fill-opacity:1;stroke:#000000;stroke-width:0.95500922;stroke-linecap:round;stroke-miterlimit:4;stroke-opacity:1;stroke-dasharray:none"
       id="path2160-0-8-9" />
    <path
       d="m 73.000004,297.40232 c 0.3778,0 2.78833,5.52964 3.09398,5.7517 0.30564,0.22207 6.30954,0.80587 6.42628,1.16518 0.11675,0.35931 -4.39736,4.36063 -4.5141,4.71994 -0.11675,0.35931 1.18334,6.24975 0.87769,6.47182 -0.30565,0.22207 -5.50605,-2.83463 -5.88385,-2.83463 -0.37781,0 -5.57821,3.0567 -5.88385,2.83463 -0.30565,-0.22207 0.99443,-6.11252 0.87768,-6.47182 -0.11674,-0.35931 -4.630851,-4.36063 -4.514105,-4.71994 0.116747,-0.35931 6.120645,-0.94311 6.426295,-1.16518 0.30565,-0.22206 2.71617,-5.7517 3.09398,-5.7517 z"
       style="fill:#ffffff;fill-opacity:1;stroke:#000000;stroke-width:0.95500922;stroke-linecap:round;stroke-miterlimit:4;stroke-opacity:1;stroke-dasharray:none"
       id="path2160-0-0-7-6" />
    <path
       d="m 94.000006,297.40233 c 0.3778,0 2.78833,5.52964 3.09398,5.7517 0.30564,0.22207 6.309544,0.80587 6.426284,1.16518 0.11675,0.35931 -4.397364,4.36062 -4.514104,4.71993 -0.11675,0.35931 1.183344,6.24975 0.87769,6.47182 -0.30565,0.22207 -5.50605,-2.83463 -5.88385,-2.83463 -0.37781,0 -5.57821,3.0567 -5.88385,2.83463 -0.30565,-0.22207 0.99443,-6.11252 0.87768,-6.47182 -0.11674,-0.35931 -4.630852,-4.36062 -4.514106,-4.71993 0.116746,-0.35931 6.120646,-0.94311 6.426296,-1.16518 0.30565,-0.22206 2.71617,-5.7517 3.09398,-5.7517 z"
       style="fill:#ffffff;fill-opacity:1;stroke:#000000;stroke-width:0.95500922;stroke-linecap:round;stroke-miterlimit:4;stroke-opacity:1;stroke-dasharray:none"
       id="path2160-0-4-3" />
    <path
       d="m 10.000005,276.40233 c 0.3778,0 2.78833,5.52964 3.09398,5.7517 0.30564,0.22207 6.30954,0.80587 6.42628,1.16518 0.11675,0.35931 -4.39736,4.36062 -4.5141,4.71993 -0.11675,0.35931 1.18334,6.24975 0.87769,6.47182 -0.30565,0.22207 -5.50605,-2.83463 -5.88385,-2.83463 -0.3778096,0 -5.5782096,3.0567 -5.8838496,2.83463 -0.30565,-0.22207 0.99443,-6.11252 0.87768,-6.47182 -0.11674,-0.35931 -4.63085095,-4.36062 -4.51410495,-4.71993 0.116747,-0.35931 6.12064495,-0.94311 6.42629495,-1.16518 0.30565,-0.22206 2.71617,-5.7517 3.0939796,-5.7517 z"
       style="fill:#ffffff;fill-opacity:1;stroke:#000000;stroke-width:0.95500922;stroke-linecap:round;stroke-miterlimit:4;stroke-opacity:1;stroke-dasharray:none"
       id="path2160-0-02-0" />
    <path
       d="m 31.000005,276.40232 c 0.3778,0 2.78833,5.52964 3.09398,5.7517 0.30564,0.22207 6.30954,0.80587 6.42628,1.16518 0.11675,0.35931 -4.39736,4.36063 -4.5141,4.71994 -0.11675,0.35931 1.18334,6.24975 0.87769,6.47182 -0.30565,0.22207 -5.50605,-2.83463 -5.88385,-2.83463 -0.37781,0 -5.57821,3.0567 -5.88385,2.83463 -0.30565,-0.22207 0.99443,-6.11252 0.87768,-6.47182 -0.11674,-0.35931 -4.630851,-4.36063 -4.514105,-4.71994 0.116747,-0.35931 6.120645,-0.94311 6.426295,-1.16518 0.30565,-0.22206 2.71617,-5.7517 3.09398,-5.7517 z"
       style="fill:#ffffff;fill-opacity:1;stroke:#000000;stroke-width:0.95500922;stroke-linecap:round;stroke-miterlimit:4;stroke-opacity:1;stroke-dasharray:none"
       id="path2160-0-0-72-14" />
    <path
       d="m 52.000004,276.40233 c 0.3778,0 2.78833,5.52964 3.09398,5.7517 0.30564,0.22207 6.30954,0.80587 6.42628,1.16518 0.11675,0.35931 -4.39736,4.36062 -4.5141,4.71993 -0.11675,0.35931 1.18334,6.24975 0.87769,6.47182 -0.30565,0.22207 -5.50605,-2.83463 -5.88385,-2.83463 -0.377809,0 -5.578209,3.0567 -5.883849,2.83463 -0.30565,-0.22207 0.99443,-6.11252 0.87768,-6.47182 -0.11674,-0.35931 -4.630851,-4.36062 -4.514105,-4.71993 0.116747,-0.35931 6.120645,-0.94311 6.426295,-1.16518 0.30565,-0.22206 2.71617,-5.7517 3.093979,-5.7517 z"
       style="fill:#ffffff;fill-opacity:1;stroke:#000000;stroke-width:0.95500922;stroke-linecap:round;stroke-miterlimit:4;stroke-opacity:1;stroke-dasharray:none"
       id="path2160-0-8-0-86" />
    <path
       d="m 73.000004,276.40232 c 0.3778,0 2.78833,5.52964 3.09398,5.7517 0.30564,0.22207 6.30954,0.80587 6.42628,1.16518 0.11675,0.35931 -4.39736,4.36063 -4.5141,4.71994 -0.11675,0.35931 1.18334,6.24975 0.87769,6.47182 -0.30565,0.22207 -5.50605,-2.83463 -5.88385,-2.83463 -0.37781,0 -5.57821,3.0567 -5.88385,2.83463 -0.30565,-0.22207 0.99443,-6.11252 0.87768,-6.47182 -0.11674,-0.35931 -4.630851,-4.36063 -4.514105,-4.71994 0.116747,-0.35931 6.120645,-0.94311 6.426295,-1.16518 0.30565,-0.22206 2.71617,-5.7517 3.09398,-5.7517 z"
       style="fill:#ffffff;fill-opacity:1;stroke:#000000;stroke-width:0.95500922;stroke-linecap:round;stroke-miterlimit:4;stroke-opacity:1;stroke-dasharray:none"
       id="path2160-0-0-7-1-6" />
    <path
       d="m 94.000006,276.40233 c 0.3778,0 2.78833,5.52964 3.09398,5.7517 0.30564,0.22207 6.309544,0.80587 6.426284,1.16518 0.11675,0.35931 -4.397364,4.36062 -4.514104,4.71993 -0.11675,0.35931 1.183344,6.24975 0.87769,6.47182 -0.30565,0.22207 -5.50605,-2.83463 -5.88385,-2.83463 -0.37781,0 -5.57821,3.0567 -5.88385,2.83463 -0.30565,-0.22207 0.99443,-6.11252 0.87768,-6.47182 -0.11674,-0.35931 -4.630852,-4.36062 -4.514106,-4.71993 0.116746,-0.35931 6.120646,-0.94311 6.426296,-1.16518 0.30565,-0.22206 2.71617,-5.7517 3.09398,-5.7517 z"
       style="fill:#ffffff;fill-opacity:1;stroke:#000000;stroke-width:0.95500922;stroke-linecap:round;stroke-miterlimit:4;stroke-opacity:1;stroke-dasharray:none"
       id="path2160-0-4-6-6" />
  </g>
</svg>
