<?xml version="1.0" encoding="UTF-8"?>
<!DOCTYPE svg PUBLIC "-//W3C//DTD SVG 1.1//EN" "http://www.w3.org/Graphics/SVG/1.1/DTD/svg11.dtd">
<!-- Creator: CorelDRAW -->
<svg xmlns="http://www.w3.org/2000/svg" xml:space="preserve" width="239.421mm" height="88.7466mm" style="shape-rendering:geometricPrecision; text-rendering:geometricPrecision; image-rendering:optimizeQuality; fill-rule:evenodd; clip-rule:evenodd"
viewBox="0 0 239.421 88.7468"
 xmlns:xlink="http://www.w3.org/1999/xlink">
 <defs>
  <style type="text/css">
   <![CDATA[
    .fil0 {fill:#005197;fill-rule:nonzero}
   ]]>
  </style>
 </defs>
 <g id="Layer_x0020_1">
  <metadata id="CorelCorpID_0Corel-Layer"/>
  <path class="fil0" d="M25.6607 79.8585l0 -27.9708c0,-0.401501 -0.200501,-0.602602 -0.602602,-0.602602l-3.11321 0c-0.435401,0 -0.653002,0.201101 -0.653002,0.602602l0 27.9708c0,1.2722 -0.434801,2.34341 -1.3054,3.21351 -0.870102,0.870602 -1.9247,1.306 -3.16371,1.306l-0.853402 0c-1.239,0 -2.29361,-0.435401 -3.16361,-1.306 -0.870702,-0.870102 -1.306,-1.9413 -1.306,-3.21351l0 -27.9708c0,-0.401501 -0.217701,-0.602602 -0.652502,-0.602602l-3.11371 0c-0.401601,0 -0.602602,0.201101 -0.602602,0.602602l0 27.9708c0,1.2384 0.234201,2.39321 0.703402,3.46491 0.468501,1.0712 1.1043,2.00831 1.908,2.81191 0.803602,0.803702 1.7407,1.4395 2.81191,1.908 1.0717,0.469201 2.20991,0.703502 3.41511,0.703502l0.853402 0c1.2052,0 2.34341,-0.234301 3.41451,-0.703502 1.0718,-0.468501 2.00891,-1.1043 2.81251,-1.908 0.803102,-0.803602 1.4395,-1.7407 1.908,-2.81191 0.468601,-1.0717 0.702902,-2.22651 0.702902,-3.46491zm-11.1455 1.4416c0.253101,0.0848002 0.516201,0.1459 0.789402,0.1833l0.0281001 0.00380001 0.0283001 0.00360001 0.0280001 0.00350001 0.000200001 0 0.0283001 0.00310001 0.000200001 0 0.0281001 0.00320001 0.000200001 0 0.0283001 0.00300001 0.000200001 0 0.0282001 0.00290001 0.000200001 0 0.0286001 0.00250001 0.000200001 0 0.0285001 0.00240001 0.000200001 0 0.0286001 0.00220001 0.000200001 0 0.0285001 0.00230001 0.000200001 0 0.0289001 0.0018 0.000200001 0 0.0287001 0.0018 0.000200001 0 0.0289001 0.0016 0.000200001 0 0.0288001 0.0016 0.000200001 0 0.0292001 0.0011 0.000200001 0 0.0290001 0.0011 0.000200001 0 0.0292001 0.000900002 0.000200001 0 0.0291001 0.000900002 0.0001 0 0.0296001 0.000400001 0.0294001 0.000500001 0.0297001 0.000300001 0.0295001 0.000200001 0.853402 0 0.0298001 -0.000200001 0.0297001 -0.000300001 0.0296001 -0.000500001 0.0294001 -0.000400001 0.0295001 -0.000900002 0.0294001 -0.000900002 0.0293001 -0.0011 0.0291001 -0.0011 0.0292001 -0.0016 0.0291001 -0.0016 0.0290001 -0.0018 0.0288001 -0.0018 0.0289001 -0.00230001 0.0288001 -0.00220001 0.0287001 -0.00240001 0.0285001 -0.00250001 0.0287001 -0.00290001 0.0285001 -0.00300001 0.0285001 -0.00320001 0.0283001 -0.00310001 0.0281001 -0.00350001 0.000200001 -0.0001 0.0280001 -0.00350001 0.000200001 -0.0001 0.0280001 -0.00370001 0.0001 -0.0001 0.00580001 -0.000800002 0.0502001 -0.00730002 0.00680002 -0.001 0.0157 -0.00250001 0.00540001 -0.000800002 0.0102 -0.0016 0.0156 -0.00250001 0.00210001 -0.000400001 0.0277001 -0.00450001 0.0014 -0.000200001 0.0263001 -0.00470001 0.00490001 -0.000800002 0.0224001 -0.00410001 0.000300001 0 0.00830002 -0.0016 0.0153 -0.00270001 0.00400001 -0.000800002 0.0114 -0.00220001 0.0153 -0.00280001 0.000600002 -0.0001 0.0276001 -0.00560001 0.00270001 -0.000600002 0.0246001 -0.00510001 0.00600002 -0.0012 0.0306001 -0.00660002 0.0153 -0.00340001 0.00260001 -0.000500001 0.0125 -0.00280001 0.0147 -0.00340001 0.000600002 -0.000200001 0.0151 -0.00350001 0.0113 -0.00260001 0.00400001 -0.001 0.015 -0.00350001 0.00800002 -0.00200001 0.00720002 -0.0018 0.015 -0.00360001 0.0241001 -0.00600002 0.00590001 -0.0014 0.0016 -0.000500001 0.0135 -0.00360001 0.0133 -0.00340001 0.0017 -0.000500001 0.015 -0.00400001 0.01 -0.00270001 0.0200001 -0.00540001 0.00660002 -0.0018 0.00830002 -0.00230001 0.015 -0.00420001 0.00330001 -0.001 0.0264001 -0.00760002 0.0147 -0.00430001 0.0117 -0.00350001 0.00320001 -0.001 0.0147 -0.00430001 0.00840002 -0.00250001 0.00640002 -0.00200001c0.0392001,-0.012 0.0785002,-0.0248001 0.1173,-0.0379001l0.00720002 -0.00250001 0.0218001 -0.00740002 0.00410001 -0.0015 0.0515001 -0.0183 0.00220001 -0.000800002 0.0717002 -0.0265001 0.00330001 -0.0012 0.0596001 -0.0235001 0.00570001 -0.00230001 0.0291001 -0.0119 0.00710002 -0.00290001 0.00910002 -0.00390001 0.016 -0.00660002 0 -0.000600002 0 -35.4178c0,-1.2704 0.435901,-2.34391 1.306,-3.21401 0.870102,-0.870102 1.9424,-1.3054 3.21341,-1.3054l0.803702 0c1.271,0 2.34391,0.435301 3.21401,1.3054 0.870102,0.870102 1.3054,1.9424 1.3054,3.21401l0 4.67011c0,0.1666 0.0588001,0.310201 0.1756,0.427001 0.1168,0.1169 0.261001,0.1756 0.427001,0.1756l3.16361 0c0.1661,0 0.310201,-0.0587001 0.427101,-0.1756 0.1168,-0.1168 0.1755,-0.260901 0.1755,-0.427001l0 -4.67011c0,-1.2372 -0.234801,-2.39501 -0.702802,-3.46491 -0.467901,-1.0706 -1.1055,-2.00881 -1.9086,-2.81191 -0.803102,-0.803102 -1.7413,-1.4407 -2.81191,-1.9086 -1.0699,-0.468001 -2.22711,-0.702802 -3.46491,-0.702802l-0.803702 0c-1.2378,0 -2.39491,0.234801 -3.46491,0.702802 -0.367201,0.1605 -0.718502,0.341301 -1.0545,0.541601l0 -3.59491 0 -12.9658c0,-1.2704 0.435901,-2.34401 1.306,-3.21401 0.870102,-0.870102 1.9424,-1.3055 3.21341,-1.3055l0.803702 0c1.271,0 2.34391,0.435401 3.21401,1.3055 0.870102,0.870002 1.3054,1.9418 1.3054,3.21401l0 4.67011c0,0.1672 0.0588001,0.310201 0.1756,0.427001 0.1168,0.1169 0.261001,0.1756 0.427001,0.1756l3.16361 0c0.1661,0 0.310201,-0.0587001 0.427101,-0.1756 0.1168,-0.1168 0.1755,-0.261001 0.1755,-0.427001l0 -4.67011c0,-1.2372 -0.234801,-2.39441 -0.702802,-3.46491 -0.468501,-1.0706 -1.1055,-2.00891 -1.9086,-2.81191 -0.803102,-0.803102 -1.7413,-1.4401 -2.81191,-1.9086 -1.0705,-0.468001 -2.22651,-0.702802 -3.46491,-0.702802l-0.803702 0c-1.2383,0 -2.39431,0.234801 -3.46491,0.702802 -0.367201,0.1607 -0.718502,0.341501 -1.0545,0.541801l0 -5.03041c0,-1.2052 -0.234901,-2.35291 -0.702802,-3.44001 -0.467401,-1.0872 -1.1056,-2.03381 -1.9086,-2.83681 -0.803102,-0.803102 -1.7497,-1.4401 -2.83681,-1.9086 -1.0872,-0.468601 -2.23481,-0.702902 -3.44001,-0.702902l-0.702902 0c-0.1678,0 -0.310101,0.0677002 -0.427001,0.201101 -0.1168,0.1329 -0.1755,0.285301 -0.1755,0.452001l0 3.11311c0,0.1661 0.0587001,0.310201 0.1755,0.427101 0.1169,0.1162 0.260401,0.1755 0.427001,0.1755l0.702902 0c1.2372,0 2.30181,0.444301 3.18851,1.331 0.886702,0.886702 1.3309,1.9519 1.3309,3.18851l0 12.674 0 5.32191c-0.335701,-0.200001 -0.687302,-0.380701 -1.0545,-0.541501 -1.0712,-0.468601 -2.22651,-0.702802 -3.46491,-0.702802l-0.803702 0c-1.2384,0 -2.39371,0.234201 -3.46491,0.702802 -1.0711,0.469101 -2.00881,1.1049 -2.81191,1.9086 -0.803602,0.803102 -1.4394,1.7408 -1.9086,2.81191 -0.468501,1.0711 -0.702802,2.22651 -0.702802,3.46491l0 4.67011c0,0.1672 0.0587001,0.309601 0.1755,0.427001 0.1175,0.1169 0.259801,0.1756 0.427101,0.1756l3.16361 0c0.1672,0 0.309601,-0.0587001 0.427001,-0.1756 0.1169,-0.1174 0.1756,-0.259801 0.1756,-0.427001l0 -4.67011c0,-1.2722 0.435301,-2.34331 1.3054,-3.21401 0.870702,-0.870102 1.9418,-1.3054 3.21401,-1.3054l0.803702 0c1.2722,0 2.34331,0.435301 3.21341,1.3054 0.870102,0.870102 1.306,1.9424 1.306,3.21401l0 11.2387 0 35.4178 0 0.000600002 0.0254001 0.0105 0.00280001 0.0011 0.00930002 0.00390001 0.000200001 0.0001 0.0281001 0.0113 0.00930002 0.00390001 0.001 0.000300001 0.00270001 0.0011 0.0337001 0.0133 0.000400001 0.000200001 0.00960002 0.00360001 0.00460001 0.0018 0.00470001 0.0018 0.00960002 0.00360001 0.00390001 0.0016 0.00920002 0.00350001 0.0720002 0.0264001 0.000500001 0.000200001 0.00290001 0.001 0.00670002 0.00230001 0.0384001 0.0134 0.00680002 0.00240001 0.00280001 0.000900002 0.00960002 0.00330001 0.00960002 0.00330001z"/>
  <path class="fil0" d="M72.2519 28.7882l0 -3.16371c0,-0.402101 -0.217601,-0.602502 -0.653002,-0.602502l-11.4492 0c-0.1673,0 -0.309601,-0.0588001 -0.427101,-0.1762 -0.1168,-0.1168 -0.1755,-0.259201 -0.1755,-0.426401l0 -10.7969c0,-0.1672 0.0587001,-0.317901 0.1755,-0.451901 0.1175,-0.1341 0.259801,-0.201101 0.427101,-0.201101l12.9557 0c0.435301,0 0.653002,-0.200401 0.653002,-0.602602l0 -3.11321c0,-0.435301 -0.217701,-0.653002 -0.653002,-0.653002l-17.3245 0c-0.1673,0 -0.309601,0.0670002 -0.427101,0.201101 -0.1168,0.134 -0.1755,0.284701 -0.1755,0.451901l0 35.9048c0,0.1672 0.0587001,0.309601 0.1755,0.427001 0.1175,0.1168 0.259801,0.1756 0.427101,0.1756l3.16361 0c0.1672,0 0.309601,-0.0588001 0.427001,-0.1756 0.1169,-0.1174 0.1756,-0.259801 0.1756,-0.427001l0 -15.1651c0,-0.1678 0.0587001,-0.310201 0.1755,-0.427001 0.1175,-0.1174 0.259801,-0.1756 0.427101,-0.1756l11.4492 0c0.1673,0 0.317901,-0.0587001 0.452001,-0.1761 0.134,-0.1168 0.201001,-0.259201 0.201001,-0.426401zm21.5428 -6.12682l0 -5.17241c0,-1.2384 -0.234301,-2.39321 -0.703402,-3.46491 -0.468601,-1.0712 -1.1044,-2.00831 -1.908,-2.81191 -0.803702,-0.803702 -1.7408,-1.4395 -2.81191,-1.9081 -1.0712,-0.468501 -2.20991,-0.703402 -3.41511,-0.703402l-9.08872 0c-0.402101,0 -0.602602,0.217701 -0.602602,0.653002l0 35.9048c0,0.1672 0.0581001,0.309601 0.1755,0.427001 0.1175,0.1168 0.259201,0.1756 0.427101,0.1756l3.11321 0c0.1672,0 0.317901,-0.0588001 0.451901,-0.1756 0.1341,-0.1174 0.201101,-0.259801 0.201101,-0.427001l0 -13.0062c0,-0.401501 0.200401,-0.602602 0.602602,-0.602602l4.21811 0c0.435401,0 0.702802,0.201101 0.803102,0.602602l3.81661 13.0062c0.1002,0.401501 0.351701,0.602602 0.753202,0.602602l3.31431 0c0.1672,0 0.301301,-0.0588001 0.401501,-0.1756 0.1008,-0.1174 0.1174,-0.259801 0.0504001,-0.427001l-4.11791 -14.1609c-0.1002,-0.368401 0.0172,-0.669702 0.351701,-0.903902 1.2052,-0.803702 2.16781,-1.8499 2.88731,-3.13871 0.720002,-1.2888 1.08,-2.72001 1.08,-4.29351zm-4.36881 0c0,1.2722 -0.435301,2.34341 -1.306,3.21401 -0.870102,0.870102 -1.9246,1.3054 -3.16361,1.3054l-4.71991 0c-0.1679,0 -0.309601,-0.0587001 -0.427101,-0.1755 -0.1174,-0.1174 -0.1755,-0.259801 -0.1755,-0.427001l0 -12.9558c0,-0.435301 0.200401,-0.653002 0.602602,-0.653002l4.71991 0c1.239,0 2.29351,0.435401 3.16361,1.306 0.870702,0.870102 1.306,1.9418 1.306,3.21351l0 5.17241zm25.4596 22.4971l0 -3.16361c0,-0.1673 -0.0670002,-0.309601 -0.201001,-0.427101 -0.1341,-0.1168 -0.284701,-0.1755 -0.452001,-0.1755l-12.9557 0c-0.1673,0 -0.309601,-0.0587001 -0.427101,-0.1756 -0.1168,-0.1174 -0.1755,-0.259801 -0.1755,-0.427001l0 -10.7963c0,-0.1678 0.0587001,-0.310201 0.1755,-0.427001 0.1175,-0.1174 0.259801,-0.1756 0.427101,-0.1756l11.4492 0c0.435401,0 0.653002,-0.217601 0.653002,-0.653002l0 -3.11321c0,-0.402101 -0.217601,-0.602502 -0.653002,-0.602502l-11.4492 0c-0.1673,0 -0.309601,-0.0671002 -0.427101,-0.201101 -0.1168,-0.134 -0.1755,-0.284701 -0.1755,-0.452001l0 -10.7464c0,-0.1672 0.0587001,-0.317901 0.1755,-0.451901 0.1175,-0.1341 0.259801,-0.201101 0.427101,-0.201101l12.9557 0c0.435301,0 0.653002,-0.200401 0.653002,-0.602602l0 -3.11321c0,-0.435301 -0.217701,-0.653002 -0.653002,-0.653002l-17.3245 0c-0.1673,0 -0.309601,0.0670002 -0.427001,0.201101 -0.1169,0.134 -0.1756,0.284701 -0.1756,0.451901l0 35.9048c0,0.1672 0.0587001,0.309601 0.1756,0.427001 0.1174,0.1168 0.259701,0.1756 0.427001,0.1756l17.3245 0c0.435301,0 0.653002,-0.201101 0.653002,-0.602602zm20.6893 0l0 -3.16361c0,-0.1673 -0.0670002,-0.309601 -0.201101,-0.427101 -0.134,-0.1168 -0.284601,-0.1755 -0.451901,-0.1755l-12.9557 0c-0.1673,0 -0.309601,-0.0587001 -0.427101,-0.1756 -0.1168,-0.1174 -0.1755,-0.259801 -0.1755,-0.427001l0 -10.7963c0,-0.1678 0.0587001,-0.310201 0.1755,-0.427001 0.1175,-0.1174 0.259801,-0.1756 0.427101,-0.1756l11.4492 0c0.435401,0 0.653002,-0.217601 0.653002,-0.653002l0 -3.11321c0,-0.402101 -0.217601,-0.602502 -0.653002,-0.602502l-11.4492 0c-0.1673,0 -0.309601,-0.0671002 -0.427101,-0.201101 -0.1168,-0.134 -0.1755,-0.284701 -0.1755,-0.452001l0 -10.7464c0,-0.1672 0.0587001,-0.317901 0.1755,-0.451901 0.1175,-0.1341 0.259801,-0.201101 0.427101,-0.201101l12.9557 0c0.435301,0 0.653002,-0.200401 0.653002,-0.602602l0 -3.11321c0,-0.435301 -0.217701,-0.653002 -0.653002,-0.653002l-17.3245 0c-0.1673,0 -0.309601,0.0670002 -0.427101,0.201101 -0.1168,0.134 -0.1755,0.284701 -0.1755,0.451901l0 35.9048c0,0.1672 0.0587001,0.309601 0.1755,0.427001 0.1175,0.1168 0.259801,0.1756 0.427101,0.1756l17.3245 0c0.435301,0 0.653002,-0.201101 0.653002,-0.602602zm33.6444 0l0 -35.9048c0,-0.435301 -0.200401,-0.653002 -0.602602,-0.653002l-3.26381 0c-0.401501,0 -0.686202,0.201101 -0.853502,0.602602l-6.52832 17.3251c-0.0670002,0.1003 -0.1506,0.1507 -0.250801,0.1507 -0.1009,0 -0.1673,-0.0504001 -0.201101,-0.1507l-6.52832 -17.3251c-0.1672,-0.401501 -0.451901,-0.602602 -0.853502,-0.602602l-3.26381 0c-0.402101,0 -0.602602,0.217701 -0.602602,0.653002l0 35.9048c0,0.401501 0.200501,0.602602 0.602602,0.602602l3.11321 0c0.435301,0 0.653002,-0.201101 0.653002,-0.602602l0 -23.1495c0,-0.134 0.0581001,-0.217701 0.1756,-0.251501 0.1174,-0.0332001 0.209301,0.0166 0.276301,0.1507l4.77041 12.6544c0.1672,0.402101 0.451901,0.602602 0.853402,0.602602l2.05931 0c0.401501,0 0.686202,-0.200501 0.853502,-0.602602l4.77031 -12.6544c0.0670002,-0.1341 0.1595,-0.1922 0.276401,-0.1756 0.1174,0.0166 0.1755,0.1085 0.1755,0.276401l0 23.1495c0,0.401501 0.217701,0.602602 0.653002,0.602602l3.11321 0c0.402201,0 0.602602,-0.201101 0.602602,-0.602602zm21.2415 -7.93402l0 -27.9708c0,-0.401501 -0.200501,-0.602602 -0.602602,-0.602602l-3.11321 0c-0.435301,0 -0.653002,0.201101 -0.653002,0.602602l0 27.9708c0,1.2722 -0.434701,2.34341 -1.3054,3.21351 -0.870102,0.870602 -1.9246,1.306 -3.16361,1.306l-0.853502 0c-1.239,0 -2.29351,-0.435401 -3.16361,-1.306 -0.870702,-0.870102 -1.306,-1.9413 -1.306,-3.21351l0 -27.9708c0,-0.401501 -0.217701,-0.602602 -0.652402,-0.602602l-3.11381 0c-0.401501,0 -0.602602,0.201101 -0.602602,0.602602l0 27.9708c0,1.2384 0.234301,2.39321 0.703402,3.46491 0.468601,1.0712 1.1044,2.00831 1.908,2.81191 0.803702,0.803702 1.7408,1.4395 2.81191,1.9081 1.0718,0.469101 2.20991,0.703402 3.41511,0.703402l0.853502 0c1.2052,0 2.34331,-0.234301 3.41451,-0.703402 1.0717,-0.468601 2.00881,-1.1044 2.81251,-1.9081 0.803002,-0.803602 1.4394,-1.7407 1.908,-2.81191 0.468501,-1.0717 0.702802,-2.22651 0.702802,-3.46491zm20.9402 0c0,-1.5735 -0.267501,-3.01291 -0.803702,-4.31891 -0.535601,-1.3054 -1.4056,-2.49401 -2.61081,-3.56521l-8.83842 -7.63262c-0.736102,-0.636402 -1.2384,-1.2722 -1.5065,-1.9086 -0.267501,-0.635802 -0.401501,-1.5231 -0.401501,-2.66131 0,-1.2389 0.435301,-2.30181 1.3054,-3.18911 0.870702,-0.886702 1.9252,-1.3303 3.16361,-1.3303l0.854102 0c1.2384,0 2.29291,0.443601 3.16361,1.3303 0.870002,0.887302 1.3054,1.9502 1.3054,3.18911l0 3.26391c0,0.435301 0.217601,0.653002 0.653002,0.653002l3.11321 0c0.401501,0 0.602602,-0.217701 0.602602,-0.653002l0 -3.26391c0,-1.2051 -0.234301,-2.35161 -0.702902,-3.43991 -0.468501,-1.0878 -1.1049,-2.03381 -1.9086,-2.83751 -0.803002,-0.803002 -1.7407,-1.4394 -2.81191,-1.908 -1.0711,-0.468501 -2.20931,-0.702802 -3.41441,-0.702802l-0.854102 0c-1.2052,0 -2.34341,0.234301 -3.41451,0.702802 -1.0711,0.468601 -2.00881,1.105 -2.81191,1.908 -0.803702,0.803702 -1.4395,1.7497 -1.9086,2.83751 -0.468601,1.0883 -0.702802,2.23481 -0.702802,3.43991 0,1.6068 0.293001,3.08001 0.878902,4.41931 0.585401,1.3386 1.4312,2.47671 2.53561,3.41441 0,0 0.0421001,0.0416001 0.1257,0.1258 0.0836002,0.0836002 0.401501,0.367701 0.954302,0.853502 0.552201,0.485101 1.4312,1.2467 2.63631,2.28461 1.2052,1.0379 2.91221,2.51121 5.12211,4.41921 0.736602,0.635802 1.2384,1.3137 1.5065,2.03371 0.267401,0.719502 0.401501,1.5652 0.401501,2.53611 0,1.2722 -0.435401,2.34341 -1.3054,3.21351 -0.870702,0.870602 -1.9252,1.306 -3.16361,1.306l-0.854102 0c-1.2384,0 -2.29291,-0.435401 -3.16361,-1.306 -0.870102,-0.870102 -1.3054,-1.9413 -1.3054,-3.21351l0 -3.26441c0,-0.401501 -0.217701,-0.602602 -0.653002,-0.602602l-3.11321 0c-0.401601,0 -0.602602,0.201101 -0.602602,0.602602l0 3.26441c0,1.2384 0.234201,2.39321 0.702802,3.46491 0.469101,1.0712 1.1049,2.00831 1.9086,2.81191 0.803102,0.803702 1.7408,1.4395 2.81191,1.9081 1.0711,0.469101 2.20931,0.703402 3.41451,0.703402l0.854102 0c1.2051,0 2.34331,-0.234301 3.41441,-0.703402 1.0712,-0.468601 2.00891,-1.1044 2.81191,-1.9081 0.803702,-0.803602 1.4401,-1.7407 1.9086,-2.81191 0.468601,-1.0717 0.702902,-2.22651 0.702902,-3.46491zm6.77912 7.93402l0 -35.9048c0,-0.401501 -0.201001,-0.602602 -0.602602,-0.602602l-3.11321 0c-0.402101,0 -0.602502,0.201101 -0.602502,0.602602l0 35.9048c0,0.401501 0.200401,0.602602 0.602502,0.602602l3.11321 0c0.401601,0 0.602602,-0.201101 0.602602,-0.602602zm21.2415 -7.88412l0 -3.31431c0,-0.435301 -0.201101,-0.652402 -0.602602,-0.652402l-3.11321 0c-0.435301,0 -0.653002,0.217101 -0.653002,0.652402l0 3.31431c0,1.239 -0.435301,2.29351 -1.3054,3.16361 -0.870702,0.870602 -1.9252,1.306 -3.16361,1.306l-0.854102 0c-1.2384,0 -2.29291,-0.435401 -3.16361,-1.306 -0.870102,-0.870102 -1.3054,-1.9246 -1.3054,-3.16361l0 -20.1366c0,-1.2722 0.435301,-2.34331 1.3054,-3.21401 0.870702,-0.870102 1.9252,-1.3054 3.16361,-1.3054l0.854102 0c1.2384,0 2.29291,0.435301 3.16361,1.3054 0.870102,0.870702 1.3054,1.9418 1.3054,3.21401l0 3.31431c0,0.1673 0.0670002,0.309601 0.201101,0.427001 0.134,0.1169 0.284701,0.1756 0.451901,0.1756l3.11321 0c0.1673,0 0.309601,-0.0587001 0.427001,-0.1756 0.1169,-0.1174 0.1756,-0.259701 0.1756,-0.427001l0 -3.31431c0,-1.2389 -0.234301,-2.39371 -0.702802,-3.46491 -0.468601,-1.0711 -1.105,-2.00881 -1.9086,-2.81251 -0.803102,-0.803002 -1.7408,-1.4394 -2.81191,-1.908 -1.0712,-0.468501 -2.20931,-0.702802 -3.41451,-0.702802l-0.854102 0c-1.2052,0 -2.34331,0.234301 -3.41451,0.702802 -1.0711,0.468601 -2.00881,1.105 -2.81191,1.908 -0.803602,0.803702 -1.4394,1.7414 -1.9086,2.81251 -0.468501,1.0712 -0.702802,2.22601 -0.702802,3.46491l0 20.1366c0,1.2051 0.234301,2.34331 0.702802,3.41501 0.469201,1.0712 1.105,2.00831 1.9086,2.81191 0.803102,0.803702 1.7408,1.4395 2.81191,1.9081 1.0712,0.469101 2.20931,0.703402 3.41451,0.703402l0.854102 0c1.2052,0 2.34331,-0.234301 3.41451,-0.703402 1.0711,-0.468601 2.00881,-1.1044 2.81191,-1.9081 0.803602,-0.803602 1.44,-1.7407 1.9086,-2.81191 0.468501,-1.0717 0.702802,-2.20991 0.702802,-3.41501zm-165.663 50.5182l0 -35.9048c0,-0.401501 -0.201101,-0.602602 -0.602602,-0.602602l-3.11381 0c-0.434701,0 -0.652402,0.201101 -0.652402,0.602602l0 15.1656c0,0.401601 -0.201001,0.602602 -0.602602,0.602602l-8.58692 0c-0.402101,0 -0.602602,-0.201001 -0.602602,-0.602602l0 -15.1656c0,-0.401501 -0.217701,-0.602602 -0.653002,-0.602602l-3.11321 0c-0.402101,0 -0.602602,0.201101 -0.602602,0.602602l0 35.9048c0,0.401501 0.200501,0.602502 0.602602,0.602502l3.11321 0c0.435301,0 0.653002,-0.201001 0.653002,-0.602502l0 -15.1651c0,-0.1678 0.0581001,-0.310201 0.1756,-0.427001 0.1174,-0.1174 0.259101,-0.1756 0.427001,-0.1756l8.58692 0c0.1673,0 0.309601,0.0582001 0.426501,0.1756 0.1174,0.1168 0.1761,0.259201 0.1761,0.427001l0 15.1651c0,0.401501 0.217701,0.602502 0.652402,0.602502l3.11381 0c0.401501,0 0.602602,-0.201001 0.602602,-0.602502zm21.2913 -7.93402l0 -27.9708c0,-0.401501 -0.200501,-0.602602 -0.602602,-0.602602l-3.11321 0c-0.435301,0 -0.653002,0.201101 -0.653002,0.602602l0 27.9708c0,1.2722 -0.434701,2.34341 -1.3054,3.21351 -0.870102,0.870602 -1.9246,1.306 -3.16361,1.306l-0.853502 0c-1.239,0 -2.29351,-0.435401 -3.16361,-1.306 -0.870702,-0.870102 -1.306,-1.9413 -1.306,-3.21351l0 -27.9708c0,-0.401501 -0.217701,-0.602602 -0.652402,-0.602602l-3.11381 0c-0.401501,0 -0.602602,0.201101 -0.602602,0.602602l0 27.9708c0,1.2384 0.234301,2.39321 0.703402,3.46491 0.468601,1.0712 1.1044,2.00831 1.908,2.81191 0.803702,0.803702 1.7408,1.4395 2.81191,1.908 1.0718,0.469201 2.20991,0.703502 3.41511,0.703502l0.853502 0c1.2052,0 2.34331,-0.234301 3.41451,-0.703502 1.0717,-0.468501 2.00881,-1.1043 2.81251,-1.908 0.803002,-0.803602 1.4394,-1.7407 1.908,-2.81191 0.468501,-1.0717 0.702802,-2.22651 0.702802,-3.46491zm21.2919 -0.351701l0 -3.01291c0,-1.2052 -0.234301,-2.34341 -0.703402,-3.41451 -0.468601,-1.0718 -1.1044,-2.00891 -1.9081,-2.81251 -0.301201,-0.301301 -0.301201,-0.586001 0,-0.853502 0.803702,-0.803702 1.4395,-1.7408 1.9081,-2.81191 0.469101,-1.0717 0.703402,-2.22651 0.703402,-3.46551l0 -3.01301c0,-1.2051 -0.234301,-2.35161 -0.703402,-3.43941 -0.468601,-1.0883 -1.1044,-2.03371 -1.9081,-2.83741 -0.803602,-0.803602 -1.7407,-1.4394 -2.81191,-1.908 -1.0711,-0.468501 -2.22651,-0.703402 -3.46491,-0.703402l-9.08922 0c-0.1673,0 -0.309601,0.0670002 -0.427101,0.201101 -0.1168,0.134 -0.1755,0.284701 -0.1755,0.451901l0 35.9048c0,0.1672 0.0587001,0.309601 0.1755,0.427001 0.1175,0.1168 0.259801,0.1755 0.427101,0.1755l9.08922 0c1.2384,0 2.39381,-0.234201 3.46491,-0.702802 1.0712,-0.469101 2.00831,-1.1049 2.81191,-1.9086 0.803702,-0.803002 1.4395,-1.7407 1.9081,-2.81191 0.469101,-1.0711 0.703402,-2.22651 0.703402,-3.46491zm-4.36881 -16.3708c0,1.2722 -0.443701,2.34391 -1.3309,3.21401 -0.887302,0.870702 -1.9502,1.306 -3.18861,1.306l-4.72051 0c-0.1672,0 -0.309601,-0.0670002 -0.427001,-0.201001 -0.1168,-0.1341 -0.1755,-0.284701 -0.1755,-0.452001l0 -10.7464c0,-0.1672 0.0587001,-0.317901 0.1755,-0.451901 0.1174,-0.1341 0.259801,-0.201101 0.427001,-0.201101l4.72051 0c1.2723,0 2.34341,0.443601 3.21351,1.3309 0.870602,0.887302 1.306,1.9501 1.306,3.18851l0 3.01301zm0 16.3708c0,1.2722 -0.435401,2.34341 -1.306,3.21401 -0.870102,0.870102 -1.9412,1.3055 -3.21351,1.3055l-4.72051 0c-0.1672,0 -0.309601,-0.0588001 -0.427001,-0.1756 -0.1168,-0.1174 -0.1755,-0.259801 -0.1755,-0.427001l0 -10.7963c0,-0.1678 0.0587001,-0.310201 0.1755,-0.427001 0.1174,-0.1174 0.259801,-0.1756 0.427001,-0.1756l4.72051 0c1.2723,0 2.34341,0.434801 3.21351,1.3054 0.870602,0.870102 1.306,1.9247 1.306,3.16371l0 3.01291z"/>
 </g>
</svg>

